<?xml version="1.0" encoding="utf-8" standalone="no"?>
<!DOCTYPE svg PUBLIC "-//W3C//DTD SVG 1.1//EN"
  "http://www.w3.org/Graphics/SVG/1.1/DTD/svg11.dtd">
<svg xmlns:xlink="http://www.w3.org/1999/xlink" width="720pt" height="360pt" viewBox="0 0 720 360" xmlns="http://www.w3.org/2000/svg" version="1.1">
 <metadata>
  <rdf:RDF xmlns:dc="http://purl.org/dc/elements/1.1/" xmlns:cc="http://creativecommons.org/ns#" xmlns:rdf="http://www.w3.org/1999/02/22-rdf-syntax-ns#">
   <cc:Work>
    <dc:type rdf:resource="http://purl.org/dc/dcmitype/StillImage"/>
    <dc:date>2026-05-17T13:04:31.420126</dc:date>
    <dc:format>image/svg+xml</dc:format>
    <dc:creator>
     <cc:Agent>
      <dc:title>Matplotlib v3.10.3, https://matplotlib.org/</dc:title>
     </cc:Agent>
    </dc:creator>
   </cc:Work>
  </rdf:RDF>
 </metadata>
 <defs>
  <style type="text/css">*{stroke-linejoin: round; stroke-linecap: butt}</style>
 </defs>
 <g id="figure_1">
  <g id="patch_1">
   <path d="M 0 360 
L 720 360 
L 720 0 
L 0 0 
L 0 360 
z
" style="fill: none"/>
  </g>
  <g id="axes_1">
   <g id="patch_2">
    <path d="M 57.69 294.678722 
L 707.04 294.678722 
L 707.04 43.04 
L 57.69 43.04 
L 57.69 294.678722 
z
" style="fill: none"/>
   </g>
   <g id="patch_3">
    <path d="M 71.604643 295.396207 
L 145.816071 295.396207 
L 145.816071 105.279288 
L 71.604643 105.279288 
z
" clip-path="url(#pc666a1c5bb)" style="fill: #808080; opacity: 0.3; stroke: #808080; stroke-linejoin: miter"/>
   </g>
   <g id="patch_4">
    <path d="M 108.710357 133.97865 
C 118.550908 133.97865 127.989739 130.954704 134.948059 125.572802 
C 141.906379 120.190899 145.816071 112.890448 145.816071 105.279288 
C 145.816071 97.668128 141.906379 90.367677 134.948059 84.985775 
C 127.989739 79.603872 118.550908 76.579926 108.710357 76.579926 
C 98.869807 76.579926 89.430975 79.603872 82.472655 84.985775 
C 75.514335 90.367677 71.604643 97.668128 71.604643 105.279288 
C 71.604643 112.890448 75.514335 120.190899 82.472655 125.572802 
C 89.430975 130.954704 98.869807 133.97865 108.710357 133.97865 
z
" clip-path="url(#pc666a1c5bb)" style="fill: #808080; opacity: 0.3; stroke: #808080; stroke-linejoin: miter"/>
   </g>
   <g id="patch_5">
    <path d="M 164.368929 295.396207 
L 238.580357 295.396207 
L 238.580357 324.095568 
L 164.368929 324.095568 
z
" clip-path="url(#pc666a1c5bb)" style="fill: #808080; opacity: 0.3; stroke: #808080; stroke-linejoin: miter"/>
   </g>
   <g id="patch_6">
    <path d="M 201.474643 352.79493 
C 211.315193 352.79493 220.754025 349.770985 227.712345 344.389082 
C 234.670665 339.007179 238.580357 331.706728 238.580357 324.095568 
C 238.580357 316.484409 234.670665 309.183958 227.712345 303.802055 
C 220.754025 298.420152 211.315193 295.396207 201.474643 295.396207 
C 191.634092 295.396207 182.195261 298.420152 175.236941 303.802055 
C 168.278621 309.183958 164.368929 316.484409 164.368929 324.095568 
C 164.368929 331.706728 168.278621 339.007179 175.236941 344.389082 
C 182.195261 349.770985 191.634092 352.79493 201.474643 352.79493 
z
" clip-path="url(#pc666a1c5bb)" style="fill: #808080; opacity: 0.3; stroke: #808080; stroke-linejoin: miter"/>
   </g>
   <g id="patch_7">
    <path d="M 257.133214 295.396207 
L 331.344643 295.396207 
L 331.344643 324.095568 
L 257.133214 324.095568 
z
" clip-path="url(#pc666a1c5bb)" style="fill: #808080; opacity: 0.3; stroke: #808080; stroke-linejoin: miter"/>
   </g>
   <g id="patch_8">
    <path d="M 294.238929 352.79493 
C 304.079479 352.79493 313.518311 349.770985 320.476631 344.389082 
C 327.434951 339.007179 331.344643 331.706728 331.344643 324.095568 
C 331.344643 316.484409 327.434951 309.183958 320.476631 303.802055 
C 313.518311 298.420152 304.079479 295.396207 294.238929 295.396207 
C 284.398378 295.396207 274.959546 298.420152 268.001226 303.802055 
C 261.042906 309.183958 257.133214 316.484409 257.133214 324.095568 
C 257.133214 331.706728 261.042906 339.007179 268.001226 344.389082 
C 274.959546 349.770985 284.398378 352.79493 294.238929 352.79493 
z
" clip-path="url(#pc666a1c5bb)" style="fill: #808080; opacity: 0.3; stroke: #808080; stroke-linejoin: miter"/>
   </g>
   <g id="patch_9">
    <path d="M 349.8975 295.396207 
L 424.108929 295.396207 
L 424.108929 324.095568 
L 349.8975 324.095568 
z
" clip-path="url(#pc666a1c5bb)" style="fill: #808080; opacity: 0.3; stroke: #808080; stroke-linejoin: miter"/>
   </g>
   <g id="patch_10">
    <path d="M 387.003214 352.79493 
C 396.843765 352.79493 406.282597 349.770985 413.240916 344.389082 
C 420.199236 339.007179 424.108929 331.706728 424.108929 324.095568 
C 424.108929 316.484409 420.199236 309.183958 413.240916 303.802055 
C 406.282597 298.420152 396.843765 295.396207 387.003214 295.396207 
C 377.162664 295.396207 367.723832 298.420152 360.765512 303.802055 
C 353.807192 309.183958 349.8975 316.484409 349.8975 324.095568 
C 349.8975 331.706728 353.807192 339.007179 360.765512 344.389082 
C 367.723832 349.770985 377.162664 352.79493 387.003214 352.79493 
z
" clip-path="url(#pc666a1c5bb)" style="fill: #808080; opacity: 0.3; stroke: #808080; stroke-linejoin: miter"/>
   </g>
   <g id="patch_11">
    <path d="M 442.661786 295.396207 
L 516.873214 295.396207 
L 516.873214 324.095568 
L 442.661786 324.095568 
z
" clip-path="url(#pc666a1c5bb)" style="fill: #808080; opacity: 0.3; stroke: #808080; stroke-linejoin: miter"/>
   </g>
   <g id="patch_12">
    <path d="M 479.7675 352.79493 
C 489.60805 352.79493 499.046882 349.770985 506.005202 344.389082 
C 512.963522 339.007179 516.873214 331.706728 516.873214 324.095568 
C 516.873214 316.484409 512.963522 309.183958 506.005202 303.802055 
C 499.046882 298.420152 489.60805 295.396207 479.7675 295.396207 
C 469.92695 295.396207 460.488118 298.420152 453.529798 303.802055 
C 446.571478 309.183958 442.661786 316.484409 442.661786 324.095568 
C 442.661786 331.706728 446.571478 339.007179 453.529798 344.389082 
C 460.488118 349.770985 469.92695 352.79493 479.7675 352.79493 
z
" clip-path="url(#pc666a1c5bb)" style="fill: #808080; opacity: 0.3; stroke: #808080; stroke-linejoin: miter"/>
   </g>
   <g id="patch_13">
    <path d="M 535.426071 295.396207 
L 609.6375 295.396207 
L 609.6375 324.095568 
L 535.426071 324.095568 
z
" clip-path="url(#pc666a1c5bb)" style="fill: #808080; opacity: 0.3; stroke: #808080; stroke-linejoin: miter"/>
   </g>
   <g id="patch_14">
    <path d="M 572.531786 352.79493 
C 582.372336 352.79493 591.811168 349.770985 598.769488 344.389082 
C 605.727808 339.007179 609.6375 331.706728 609.6375 324.095568 
C 609.6375 316.484409 605.727808 309.183958 598.769488 303.802055 
C 591.811168 298.420152 582.372336 295.396207 572.531786 295.396207 
C 562.691235 295.396207 553.252403 298.420152 546.294084 303.802055 
C 539.335764 309.183958 535.426071 316.484409 535.426071 324.095568 
C 535.426071 331.706728 539.335764 339.007179 546.294084 344.389082 
C 553.252403 349.770985 562.691235 352.79493 572.531786 352.79493 
z
" clip-path="url(#pc666a1c5bb)" style="fill: #808080; opacity: 0.3; stroke: #808080; stroke-linejoin: miter"/>
   </g>
   <g id="patch_15">
    <path d="M 628.190357 295.396207 
L 702.401786 295.396207 
L 702.401786 184.169824 
L 628.190357 184.169824 
z
" clip-path="url(#pc666a1c5bb)" style="fill: #808080; opacity: 0.3; stroke: #808080; stroke-linejoin: miter"/>
   </g>
   <g id="patch_16">
    <path d="M 665.296071 212.869186 
C 675.136622 212.869186 684.575454 209.845241 691.533774 204.463338 
C 698.492094 199.081435 702.401786 191.780984 702.401786 184.169824 
C 702.401786 176.558665 698.492094 169.258214 691.533774 163.876311 
C 684.575454 158.494408 675.136622 155.470462 665.296071 155.470462 
C 655.455521 155.470462 646.016689 158.494408 639.058369 163.876311 
C 632.100049 169.258214 628.190357 176.558665 628.190357 184.169824 
C 628.190357 191.780984 632.100049 199.081435 639.058369 204.463338 
C 646.016689 209.845241 655.455521 212.869186 665.296071 212.869186 
z
" clip-path="url(#pc666a1c5bb)" style="fill: #808080; opacity: 0.3; stroke: #808080; stroke-linejoin: miter"/>
   </g>
   <g id="matplotlib.axis_1">
    <g id="xtick_1">
     <g id="text_1">
      <!-- 2026-05-10 -->
      <g style="fill: #757a7f" transform="translate(87.816973 345.406362) rotate(-45) scale(0.1 -0.1)">
       <defs>
        <path id="ArialMT-32" d="M 3222 541 
L 3222 0 
L 194 0 
Q 188 203 259 391 
Q 375 700 629 1000 
Q 884 1300 1366 1694 
Q 2113 2306 2375 2664 
Q 2638 3022 2638 3341 
Q 2638 3675 2398 3904 
Q 2159 4134 1775 4134 
Q 1369 4134 1125 3890 
Q 881 3647 878 3216 
L 300 3275 
Q 359 3922 746 4261 
Q 1134 4600 1788 4600 
Q 2447 4600 2831 4234 
Q 3216 3869 3216 3328 
Q 3216 3053 3103 2787 
Q 2991 2522 2730 2228 
Q 2469 1934 1863 1422 
Q 1356 997 1212 845 
Q 1069 694 975 541 
L 3222 541 
z
" transform="scale(0.015625)"/>
        <path id="ArialMT-30" d="M 266 2259 
Q 266 3072 433 3567 
Q 600 4063 929 4331 
Q 1259 4600 1759 4600 
Q 2128 4600 2406 4451 
Q 2684 4303 2865 4023 
Q 3047 3744 3150 3342 
Q 3253 2941 3253 2259 
Q 3253 1453 3087 958 
Q 2922 463 2592 192 
Q 2263 -78 1759 -78 
Q 1097 -78 719 397 
Q 266 969 266 2259 
z
M 844 2259 
Q 844 1131 1108 757 
Q 1372 384 1759 384 
Q 2147 384 2411 759 
Q 2675 1134 2675 2259 
Q 2675 3391 2411 3762 
Q 2147 4134 1753 4134 
Q 1366 4134 1134 3806 
Q 844 3388 844 2259 
z
" transform="scale(0.015625)"/>
        <path id="ArialMT-36" d="M 3184 3459 
L 2625 3416 
Q 2550 3747 2413 3897 
Q 2184 4138 1850 4138 
Q 1581 4138 1378 3988 
Q 1113 3794 959 3422 
Q 806 3050 800 2363 
Q 1003 2672 1297 2822 
Q 1591 2972 1913 2972 
Q 2475 2972 2870 2558 
Q 3266 2144 3266 1488 
Q 3266 1056 3080 686 
Q 2894 316 2569 119 
Q 2244 -78 1831 -78 
Q 1128 -78 684 439 
Q 241 956 241 2144 
Q 241 3472 731 4075 
Q 1159 4600 1884 4600 
Q 2425 4600 2770 4297 
Q 3116 3994 3184 3459 
z
M 888 1484 
Q 888 1194 1011 928 
Q 1134 663 1356 523 
Q 1578 384 1822 384 
Q 2178 384 2434 671 
Q 2691 959 2691 1453 
Q 2691 1928 2437 2201 
Q 2184 2475 1800 2475 
Q 1419 2475 1153 2201 
Q 888 1928 888 1484 
z
" transform="scale(0.015625)"/>
        <path id="ArialMT-2d" d="M 203 1375 
L 203 1941 
L 1931 1941 
L 1931 1375 
L 203 1375 
z
" transform="scale(0.015625)"/>
        <path id="ArialMT-35" d="M 266 1200 
L 856 1250 
Q 922 819 1161 601 
Q 1400 384 1738 384 
Q 2144 384 2425 690 
Q 2706 997 2706 1503 
Q 2706 1984 2436 2262 
Q 2166 2541 1728 2541 
Q 1456 2541 1237 2417 
Q 1019 2294 894 2097 
L 366 2166 
L 809 4519 
L 3088 4519 
L 3088 3981 
L 1259 3981 
L 1013 2750 
Q 1425 3038 1878 3038 
Q 2478 3038 2890 2622 
Q 3303 2206 3303 1553 
Q 3303 931 2941 478 
Q 2500 -78 1738 -78 
Q 1113 -78 717 272 
Q 322 622 266 1200 
z
" transform="scale(0.015625)"/>
        <path id="ArialMT-31" d="M 2384 0 
L 1822 0 
L 1822 3584 
Q 1619 3391 1289 3197 
Q 959 3003 697 2906 
L 697 3450 
Q 1169 3672 1522 3987 
Q 1875 4303 2022 4600 
L 2384 4600 
L 2384 0 
z
" transform="scale(0.015625)"/>
       </defs>
       <use xlink:href="#ArialMT-32"/>
       <use xlink:href="#ArialMT-30" transform="translate(55.615234 0)"/>
       <use xlink:href="#ArialMT-32" transform="translate(111.230469 0)"/>
       <use xlink:href="#ArialMT-36" transform="translate(166.845703 0)"/>
       <use xlink:href="#ArialMT-2d" transform="translate(222.460938 0)"/>
       <use xlink:href="#ArialMT-30" transform="translate(255.761719 0)"/>
       <use xlink:href="#ArialMT-35" transform="translate(311.376953 0)"/>
       <use xlink:href="#ArialMT-2d" transform="translate(366.992188 0)"/>
       <use xlink:href="#ArialMT-31" transform="translate(400.292969 0)"/>
       <use xlink:href="#ArialMT-30" transform="translate(455.908203 0)"/>
      </g>
     </g>
    </g>
    <g id="xtick_2">
     <g id="text_2">
      <!-- 2026-05-11 -->
      <g style="fill: #757a7f" transform="translate(180.842005 344.884871) rotate(-45) scale(0.1 -0.1)">
       <use xlink:href="#ArialMT-32"/>
       <use xlink:href="#ArialMT-30" transform="translate(55.615234 0)"/>
       <use xlink:href="#ArialMT-32" transform="translate(111.230469 0)"/>
       <use xlink:href="#ArialMT-36" transform="translate(166.845703 0)"/>
       <use xlink:href="#ArialMT-2d" transform="translate(222.460938 0)"/>
       <use xlink:href="#ArialMT-30" transform="translate(255.761719 0)"/>
       <use xlink:href="#ArialMT-35" transform="translate(311.376953 0)"/>
       <use xlink:href="#ArialMT-2d" transform="translate(366.992188 0)"/>
       <use xlink:href="#ArialMT-31" transform="translate(400.292969 0)"/>
       <use xlink:href="#ArialMT-31" transform="translate(448.533203 0)"/>
      </g>
     </g>
    </g>
    <g id="xtick_3">
     <g id="text_3">
      <!-- 2026-05-12 -->
      <g style="fill: #757a7f" transform="translate(273.345545 345.406362) rotate(-45) scale(0.1 -0.1)">
       <use xlink:href="#ArialMT-32"/>
       <use xlink:href="#ArialMT-30" transform="translate(55.615234 0)"/>
       <use xlink:href="#ArialMT-32" transform="translate(111.230469 0)"/>
       <use xlink:href="#ArialMT-36" transform="translate(166.845703 0)"/>
       <use xlink:href="#ArialMT-2d" transform="translate(222.460938 0)"/>
       <use xlink:href="#ArialMT-30" transform="translate(255.761719 0)"/>
       <use xlink:href="#ArialMT-35" transform="translate(311.376953 0)"/>
       <use xlink:href="#ArialMT-2d" transform="translate(366.992188 0)"/>
       <use xlink:href="#ArialMT-31" transform="translate(400.292969 0)"/>
       <use xlink:href="#ArialMT-32" transform="translate(455.908203 0)"/>
      </g>
     </g>
    </g>
    <g id="xtick_4">
     <g id="text_4">
      <!-- 2026-05-13 -->
      <g style="fill: #757a7f" transform="translate(366.10983 345.406362) rotate(-45) scale(0.1 -0.1)">
       <defs>
        <path id="ArialMT-33" d="M 269 1209 
L 831 1284 
Q 928 806 1161 595 
Q 1394 384 1728 384 
Q 2125 384 2398 659 
Q 2672 934 2672 1341 
Q 2672 1728 2419 1979 
Q 2166 2231 1775 2231 
Q 1616 2231 1378 2169 
L 1441 2663 
Q 1497 2656 1531 2656 
Q 1891 2656 2178 2843 
Q 2466 3031 2466 3422 
Q 2466 3731 2256 3934 
Q 2047 4138 1716 4138 
Q 1388 4138 1169 3931 
Q 950 3725 888 3313 
L 325 3413 
Q 428 3978 793 4289 
Q 1159 4600 1703 4600 
Q 2078 4600 2393 4439 
Q 2709 4278 2876 4000 
Q 3044 3722 3044 3409 
Q 3044 3113 2884 2869 
Q 2725 2625 2413 2481 
Q 2819 2388 3044 2092 
Q 3269 1797 3269 1353 
Q 3269 753 2831 336 
Q 2394 -81 1725 -81 
Q 1122 -81 723 278 
Q 325 638 269 1209 
z
" transform="scale(0.015625)"/>
       </defs>
       <use xlink:href="#ArialMT-32"/>
       <use xlink:href="#ArialMT-30" transform="translate(55.615234 0)"/>
       <use xlink:href="#ArialMT-32" transform="translate(111.230469 0)"/>
       <use xlink:href="#ArialMT-36" transform="translate(166.845703 0)"/>
       <use xlink:href="#ArialMT-2d" transform="translate(222.460938 0)"/>
       <use xlink:href="#ArialMT-30" transform="translate(255.761719 0)"/>
       <use xlink:href="#ArialMT-35" transform="translate(311.376953 0)"/>
       <use xlink:href="#ArialMT-2d" transform="translate(366.992188 0)"/>
       <use xlink:href="#ArialMT-31" transform="translate(400.292969 0)"/>
       <use xlink:href="#ArialMT-33" transform="translate(455.908203 0)"/>
      </g>
     </g>
    </g>
    <g id="xtick_5">
     <g id="text_5">
      <!-- 2026-05-14 -->
      <g style="fill: #757a7f" transform="translate(458.874116 345.406362) rotate(-45) scale(0.1 -0.1)">
       <defs>
        <path id="ArialMT-34" d="M 2069 0 
L 2069 1097 
L 81 1097 
L 81 1613 
L 2172 4581 
L 2631 4581 
L 2631 1613 
L 3250 1613 
L 3250 1097 
L 2631 1097 
L 2631 0 
L 2069 0 
z
M 2069 1613 
L 2069 3678 
L 634 1613 
L 2069 1613 
z
" transform="scale(0.015625)"/>
       </defs>
       <use xlink:href="#ArialMT-32"/>
       <use xlink:href="#ArialMT-30" transform="translate(55.615234 0)"/>
       <use xlink:href="#ArialMT-32" transform="translate(111.230469 0)"/>
       <use xlink:href="#ArialMT-36" transform="translate(166.845703 0)"/>
       <use xlink:href="#ArialMT-2d" transform="translate(222.460938 0)"/>
       <use xlink:href="#ArialMT-30" transform="translate(255.761719 0)"/>
       <use xlink:href="#ArialMT-35" transform="translate(311.376953 0)"/>
       <use xlink:href="#ArialMT-2d" transform="translate(366.992188 0)"/>
       <use xlink:href="#ArialMT-31" transform="translate(400.292969 0)"/>
       <use xlink:href="#ArialMT-34" transform="translate(455.908203 0)"/>
      </g>
     </g>
    </g>
    <g id="xtick_6">
     <g id="text_6">
      <!-- 2026-05-15 -->
      <g style="fill: #757a7f" transform="translate(551.638402 345.406362) rotate(-45) scale(0.1 -0.1)">
       <use xlink:href="#ArialMT-32"/>
       <use xlink:href="#ArialMT-30" transform="translate(55.615234 0)"/>
       <use xlink:href="#ArialMT-32" transform="translate(111.230469 0)"/>
       <use xlink:href="#ArialMT-36" transform="translate(166.845703 0)"/>
       <use xlink:href="#ArialMT-2d" transform="translate(222.460938 0)"/>
       <use xlink:href="#ArialMT-30" transform="translate(255.761719 0)"/>
       <use xlink:href="#ArialMT-35" transform="translate(311.376953 0)"/>
       <use xlink:href="#ArialMT-2d" transform="translate(366.992188 0)"/>
       <use xlink:href="#ArialMT-31" transform="translate(400.292969 0)"/>
       <use xlink:href="#ArialMT-35" transform="translate(455.908203 0)"/>
      </g>
     </g>
    </g>
    <g id="xtick_7">
     <g id="text_7">
      <!-- 2026-05-16 -->
      <g style="fill: #757a7f" transform="translate(644.402688 345.406362) rotate(-45) scale(0.1 -0.1)">
       <use xlink:href="#ArialMT-32"/>
       <use xlink:href="#ArialMT-30" transform="translate(55.615234 0)"/>
       <use xlink:href="#ArialMT-32" transform="translate(111.230469 0)"/>
       <use xlink:href="#ArialMT-36" transform="translate(166.845703 0)"/>
       <use xlink:href="#ArialMT-2d" transform="translate(222.460938 0)"/>
       <use xlink:href="#ArialMT-30" transform="translate(255.761719 0)"/>
       <use xlink:href="#ArialMT-35" transform="translate(311.376953 0)"/>
       <use xlink:href="#ArialMT-2d" transform="translate(366.992188 0)"/>
       <use xlink:href="#ArialMT-31" transform="translate(400.292969 0)"/>
       <use xlink:href="#ArialMT-36" transform="translate(455.908203 0)"/>
      </g>
     </g>
    </g>
   </g>
   <g id="matplotlib.axis_2">
    <g id="ytick_1">
     <g id="line2d_1">
      <path d="M 57.69 294.678722 
L 707.04 294.678722 
" clip-path="url(#pc666a1c5bb)" style="fill: none; stroke: #cccccc; stroke-linecap: round"/>
     </g>
     <g id="text_8">
      <!-- 0% -->
      <g style="fill: #757a7f" transform="translate(33.736875 298.257629) scale(0.1 -0.1)">
       <defs>
        <path id="ArialMT-25" d="M 372 3481 
Q 372 3972 619 4315 
Q 866 4659 1334 4659 
Q 1766 4659 2048 4351 
Q 2331 4044 2331 3447 
Q 2331 2866 2045 2552 
Q 1759 2238 1341 2238 
Q 925 2238 648 2547 
Q 372 2856 372 3481 
z
M 1350 4272 
Q 1141 4272 1002 4090 
Q 863 3909 863 3425 
Q 863 2984 1003 2804 
Q 1144 2625 1350 2625 
Q 1563 2625 1702 2806 
Q 1841 2988 1841 3469 
Q 1841 3913 1700 4092 
Q 1559 4272 1350 4272 
z
M 1353 -169 
L 3859 4659 
L 4316 4659 
L 1819 -169 
L 1353 -169 
z
M 3334 1075 
Q 3334 1569 3581 1911 
Q 3828 2253 4300 2253 
Q 4731 2253 5014 1945 
Q 5297 1638 5297 1041 
Q 5297 459 5011 145 
Q 4725 -169 4303 -169 
Q 3888 -169 3611 142 
Q 3334 453 3334 1075 
z
M 4316 1866 
Q 4103 1866 3964 1684 
Q 3825 1503 3825 1019 
Q 3825 581 3965 400 
Q 4106 219 4313 219 
Q 4528 219 4667 400 
Q 4806 581 4806 1063 
Q 4806 1506 4665 1686 
Q 4525 1866 4316 1866 
z
" transform="scale(0.015625)"/>
       </defs>
       <use xlink:href="#ArialMT-30"/>
       <use xlink:href="#ArialMT-25" transform="translate(55.615234 0)"/>
      </g>
     </g>
    </g>
    <g id="ytick_2">
     <g id="line2d_2">
      <path d="M 57.69 258.80452 
L 707.04 258.80452 
" clip-path="url(#pc666a1c5bb)" style="fill: none; stroke: #cccccc; stroke-linecap: round"/>
     </g>
     <g id="text_9">
      <!-- 10% -->
      <g style="fill: #757a7f" transform="translate(28.175937 262.383426) scale(0.1 -0.1)">
       <use xlink:href="#ArialMT-31"/>
       <use xlink:href="#ArialMT-30" transform="translate(55.615234 0)"/>
       <use xlink:href="#ArialMT-25" transform="translate(111.230469 0)"/>
      </g>
     </g>
    </g>
    <g id="ytick_3">
     <g id="line2d_3">
      <path d="M 57.69 222.930318 
L 707.04 222.930318 
" clip-path="url(#pc666a1c5bb)" style="fill: none; stroke: #cccccc; stroke-linecap: round"/>
     </g>
     <g id="text_10">
      <!-- 20% -->
      <g style="fill: #757a7f" transform="translate(28.175937 226.509224) scale(0.1 -0.1)">
       <use xlink:href="#ArialMT-32"/>
       <use xlink:href="#ArialMT-30" transform="translate(55.615234 0)"/>
       <use xlink:href="#ArialMT-25" transform="translate(111.230469 0)"/>
      </g>
     </g>
    </g>
    <g id="ytick_4">
     <g id="line2d_4">
      <path d="M 57.69 187.056115 
L 707.04 187.056115 
" clip-path="url(#pc666a1c5bb)" style="fill: none; stroke: #cccccc; stroke-linecap: round"/>
     </g>
     <g id="text_11">
      <!-- 30% -->
      <g style="fill: #757a7f" transform="translate(28.175937 190.635021) scale(0.1 -0.1)">
       <use xlink:href="#ArialMT-33"/>
       <use xlink:href="#ArialMT-30" transform="translate(55.615234 0)"/>
       <use xlink:href="#ArialMT-25" transform="translate(111.230469 0)"/>
      </g>
     </g>
    </g>
    <g id="ytick_5">
     <g id="line2d_5">
      <path d="M 57.69 151.181913 
L 707.04 151.181913 
" clip-path="url(#pc666a1c5bb)" style="fill: none; stroke: #cccccc; stroke-linecap: round"/>
     </g>
     <g id="text_12">
      <!-- 40% -->
      <g style="fill: #757a7f" transform="translate(28.175937 154.760819) scale(0.1 -0.1)">
       <use xlink:href="#ArialMT-34"/>
       <use xlink:href="#ArialMT-30" transform="translate(55.615234 0)"/>
       <use xlink:href="#ArialMT-25" transform="translate(111.230469 0)"/>
      </g>
     </g>
    </g>
    <g id="ytick_6">
     <g id="line2d_6">
      <path d="M 57.69 115.30771 
L 707.04 115.30771 
" clip-path="url(#pc666a1c5bb)" style="fill: none; stroke: #cccccc; stroke-linecap: round"/>
     </g>
     <g id="text_13">
      <!-- 50% -->
      <g style="fill: #757a7f" transform="translate(28.175937 118.886617) scale(0.1 -0.1)">
       <use xlink:href="#ArialMT-35"/>
       <use xlink:href="#ArialMT-30" transform="translate(55.615234 0)"/>
       <use xlink:href="#ArialMT-25" transform="translate(111.230469 0)"/>
      </g>
     </g>
    </g>
    <g id="ytick_7">
     <g id="line2d_7">
      <path d="M 57.69 79.433508 
L 707.04 79.433508 
" clip-path="url(#pc666a1c5bb)" style="fill: none; stroke: #cccccc; stroke-linecap: round"/>
     </g>
     <g id="text_14">
      <!-- 60% -->
      <g style="fill: #757a7f" transform="translate(28.175937 83.012414) scale(0.1 -0.1)">
       <use xlink:href="#ArialMT-36"/>
       <use xlink:href="#ArialMT-30" transform="translate(55.615234 0)"/>
       <use xlink:href="#ArialMT-25" transform="translate(111.230469 0)"/>
      </g>
     </g>
    </g>
    <g id="ytick_8">
     <g id="line2d_8">
      <path d="M 57.69 43.559305 
L 707.04 43.559305 
" clip-path="url(#pc666a1c5bb)" style="fill: none; stroke: #cccccc; stroke-linecap: round"/>
     </g>
     <g id="text_15">
      <!-- 70% -->
      <g style="fill: #757a7f" transform="translate(28.175937 47.138212) scale(0.1 -0.1)">
       <defs>
        <path id="ArialMT-37" d="M 303 3981 
L 303 4522 
L 3269 4522 
L 3269 4084 
Q 2831 3619 2401 2847 
Q 1972 2075 1738 1259 
Q 1569 684 1522 0 
L 944 0 
Q 953 541 1156 1306 
Q 1359 2072 1739 2783 
Q 2119 3494 2547 3981 
L 303 3981 
z
" transform="scale(0.015625)"/>
       </defs>
       <use xlink:href="#ArialMT-37"/>
       <use xlink:href="#ArialMT-30" transform="translate(55.615234 0)"/>
       <use xlink:href="#ArialMT-25" transform="translate(111.230469 0)"/>
      </g>
     </g>
    </g>
    <g id="text_16">
     <!-- Usage (%) -->
     <g style="fill: #757a7f" transform="translate(21.650312 197.199986) rotate(-90) scale(0.12 -0.12)">
      <defs>
       <path id="ArialMT-55" d="M 3500 4581 
L 4106 4581 
L 4106 1934 
Q 4106 1244 3950 837 
Q 3794 431 3386 176 
Q 2978 -78 2316 -78 
Q 1672 -78 1262 144 
Q 853 366 678 786 
Q 503 1206 503 1934 
L 503 4581 
L 1109 4581 
L 1109 1938 
Q 1109 1341 1220 1058 
Q 1331 775 1601 622 
Q 1872 469 2263 469 
Q 2931 469 3215 772 
Q 3500 1075 3500 1938 
L 3500 4581 
z
" transform="scale(0.015625)"/>
       <path id="ArialMT-73" d="M 197 991 
L 753 1078 
Q 800 744 1014 566 
Q 1228 388 1613 388 
Q 2000 388 2187 545 
Q 2375 703 2375 916 
Q 2375 1106 2209 1216 
Q 2094 1291 1634 1406 
Q 1016 1563 777 1677 
Q 538 1791 414 1992 
Q 291 2194 291 2438 
Q 291 2659 392 2848 
Q 494 3038 669 3163 
Q 800 3259 1026 3326 
Q 1253 3394 1513 3394 
Q 1903 3394 2198 3281 
Q 2494 3169 2634 2976 
Q 2775 2784 2828 2463 
L 2278 2388 
Q 2241 2644 2061 2787 
Q 1881 2931 1553 2931 
Q 1166 2931 1000 2803 
Q 834 2675 834 2503 
Q 834 2394 903 2306 
Q 972 2216 1119 2156 
Q 1203 2125 1616 2013 
Q 2213 1853 2448 1751 
Q 2684 1650 2818 1456 
Q 2953 1263 2953 975 
Q 2953 694 2789 445 
Q 2625 197 2315 61 
Q 2006 -75 1616 -75 
Q 969 -75 630 194 
Q 291 463 197 991 
z
" transform="scale(0.015625)"/>
       <path id="ArialMT-61" d="M 2588 409 
Q 2275 144 1986 34 
Q 1697 -75 1366 -75 
Q 819 -75 525 192 
Q 231 459 231 875 
Q 231 1119 342 1320 
Q 453 1522 633 1644 
Q 813 1766 1038 1828 
Q 1203 1872 1538 1913 
Q 2219 1994 2541 2106 
Q 2544 2222 2544 2253 
Q 2544 2597 2384 2738 
Q 2169 2928 1744 2928 
Q 1347 2928 1158 2789 
Q 969 2650 878 2297 
L 328 2372 
Q 403 2725 575 2942 
Q 747 3159 1072 3276 
Q 1397 3394 1825 3394 
Q 2250 3394 2515 3294 
Q 2781 3194 2906 3042 
Q 3031 2891 3081 2659 
Q 3109 2516 3109 2141 
L 3109 1391 
Q 3109 606 3145 398 
Q 3181 191 3288 0 
L 2700 0 
Q 2613 175 2588 409 
z
M 2541 1666 
Q 2234 1541 1622 1453 
Q 1275 1403 1131 1340 
Q 988 1278 909 1158 
Q 831 1038 831 891 
Q 831 666 1001 516 
Q 1172 366 1500 366 
Q 1825 366 2078 508 
Q 2331 650 2450 897 
Q 2541 1088 2541 1459 
L 2541 1666 
z
" transform="scale(0.015625)"/>
       <path id="ArialMT-67" d="M 319 -275 
L 866 -356 
Q 900 -609 1056 -725 
Q 1266 -881 1628 -881 
Q 2019 -881 2231 -725 
Q 2444 -569 2519 -288 
Q 2563 -116 2559 434 
Q 2191 0 1641 0 
Q 956 0 581 494 
Q 206 988 206 1678 
Q 206 2153 378 2554 
Q 550 2956 876 3175 
Q 1203 3394 1644 3394 
Q 2231 3394 2613 2919 
L 2613 3319 
L 3131 3319 
L 3131 450 
Q 3131 -325 2973 -648 
Q 2816 -972 2473 -1159 
Q 2131 -1347 1631 -1347 
Q 1038 -1347 672 -1080 
Q 306 -813 319 -275 
z
M 784 1719 
Q 784 1066 1043 766 
Q 1303 466 1694 466 
Q 2081 466 2343 764 
Q 2606 1063 2606 1700 
Q 2606 2309 2336 2618 
Q 2066 2928 1684 2928 
Q 1309 2928 1046 2623 
Q 784 2319 784 1719 
z
" transform="scale(0.015625)"/>
       <path id="ArialMT-65" d="M 2694 1069 
L 3275 997 
Q 3138 488 2766 206 
Q 2394 -75 1816 -75 
Q 1088 -75 661 373 
Q 234 822 234 1631 
Q 234 2469 665 2931 
Q 1097 3394 1784 3394 
Q 2450 3394 2872 2941 
Q 3294 2488 3294 1666 
Q 3294 1616 3291 1516 
L 816 1516 
Q 847 969 1125 678 
Q 1403 388 1819 388 
Q 2128 388 2347 550 
Q 2566 713 2694 1069 
z
M 847 1978 
L 2700 1978 
Q 2663 2397 2488 2606 
Q 2219 2931 1791 2931 
Q 1403 2931 1139 2672 
Q 875 2413 847 1978 
z
" transform="scale(0.015625)"/>
       <path id="ArialMT-20" transform="scale(0.015625)"/>
       <path id="ArialMT-28" d="M 1497 -1347 
Q 1031 -759 709 28 
Q 388 816 388 1659 
Q 388 2403 628 3084 
Q 909 3875 1497 4659 
L 1900 4659 
Q 1522 4009 1400 3731 
Q 1209 3300 1100 2831 
Q 966 2247 966 1656 
Q 966 153 1900 -1347 
L 1497 -1347 
z
" transform="scale(0.015625)"/>
       <path id="ArialMT-29" d="M 791 -1347 
L 388 -1347 
Q 1322 153 1322 1656 
Q 1322 2244 1188 2822 
Q 1081 3291 891 3722 
Q 769 4003 388 4659 
L 791 4659 
Q 1378 3875 1659 3084 
Q 1900 2403 1900 1659 
Q 1900 816 1576 28 
Q 1253 -759 791 -1347 
z
" transform="scale(0.015625)"/>
      </defs>
      <use xlink:href="#ArialMT-55"/>
      <use xlink:href="#ArialMT-73" transform="translate(72.216797 0)"/>
      <use xlink:href="#ArialMT-61" transform="translate(122.216797 0)"/>
      <use xlink:href="#ArialMT-67" transform="translate(177.832031 0)"/>
      <use xlink:href="#ArialMT-65" transform="translate(233.447266 0)"/>
      <use xlink:href="#ArialMT-20" transform="translate(289.0625 0)"/>
      <use xlink:href="#ArialMT-28" transform="translate(316.845703 0)"/>
      <use xlink:href="#ArialMT-25" transform="translate(350.146484 0)"/>
      <use xlink:href="#ArialMT-29" transform="translate(439.0625 0)"/>
     </g>
    </g>
   </g>
   <g id="patch_17">
    <path d="M 66.966429 294.678722 
L 141.177857 294.678722 
L 141.177857 104.561804 
L 66.966429 104.561804 
z
" clip-path="url(#pc666a1c5bb)" style="fill: #aeccdb"/>
   </g>
   <g id="patch_18">
    <path d="M 159.730714 294.678722 
L 233.942143 294.678722 
L 233.942143 323.378084 
L 159.730714 323.378084 
z
" clip-path="url(#pc666a1c5bb)" style="fill: #3274a1"/>
   </g>
   <g id="patch_19">
    <path d="M 252.495 294.678722 
L 326.706429 294.678722 
L 326.706429 323.378084 
L 252.495 323.378084 
z
" clip-path="url(#pc666a1c5bb)" style="fill: #b3d495"/>
   </g>
   <g id="patch_20">
    <path d="M 345.259286 294.678722 
L 419.470714 294.678722 
L 419.470714 323.378084 
L 345.259286 323.378084 
z
" clip-path="url(#pc666a1c5bb)" style="fill: #40923a"/>
   </g>
   <g id="patch_21">
    <path d="M 438.023571 294.678722 
L 512.235 294.678722 
L 512.235 323.378084 
L 438.023571 323.378084 
z
" clip-path="url(#pc666a1c5bb)" style="fill: #efa6a5"/>
   </g>
   <g id="patch_22">
    <path d="M 530.787857 294.678722 
L 604.999286 294.678722 
L 604.999286 323.378084 
L 530.787857 323.378084 
z
" clip-path="url(#pc666a1c5bb)" style="fill: #ca3335"/>
   </g>
   <g id="patch_23">
    <path d="M 623.552143 294.678722 
L 697.763571 294.678722 
L 697.763571 183.45234 
L 623.552143 183.45234 
z
" clip-path="url(#pc666a1c5bb)" style="fill: #ebbd81"/>
   </g>
   <g id="line2d_9">
    <path clip-path="url(#pc666a1c5bb)" style="fill: none; stroke: #424242; stroke-width: 2.25; stroke-linecap: round"/>
   </g>
   <g id="line2d_10">
    <path clip-path="url(#pc666a1c5bb)" style="fill: none; stroke: #424242; stroke-width: 2.25; stroke-linecap: round"/>
   </g>
   <g id="line2d_11">
    <path clip-path="url(#pc666a1c5bb)" style="fill: none; stroke: #424242; stroke-width: 2.25; stroke-linecap: round"/>
   </g>
   <g id="line2d_12">
    <path clip-path="url(#pc666a1c5bb)" style="fill: none; stroke: #424242; stroke-width: 2.25; stroke-linecap: round"/>
   </g>
   <g id="line2d_13">
    <path clip-path="url(#pc666a1c5bb)" style="fill: none; stroke: #424242; stroke-width: 2.25; stroke-linecap: round"/>
   </g>
   <g id="line2d_14">
    <path clip-path="url(#pc666a1c5bb)" style="fill: none; stroke: #424242; stroke-width: 2.25; stroke-linecap: round"/>
   </g>
   <g id="line2d_15">
    <path clip-path="url(#pc666a1c5bb)" style="fill: none; stroke: #424242; stroke-width: 2.25; stroke-linecap: round"/>
   </g>
   <g id="patch_24">
    <path d="M 104.072143 133.261166 
C 113.912693 133.261166 123.351525 130.23722 130.309845 124.855317 
C 137.268165 119.473415 141.177857 112.172964 141.177857 104.561804 
C 141.177857 96.950644 137.268165 89.650193 130.309845 84.268291 
C 123.351525 78.886388 113.912693 75.862442 104.072143 75.862442 
C 94.231592 75.862442 84.792761 78.886388 77.834441 84.268291 
C 70.876121 89.650193 66.966429 96.950644 66.966429 104.561804 
C 66.966429 112.172964 70.876121 119.473415 77.834441 124.855317 
C 84.792761 130.23722 94.231592 133.261166 104.072143 133.261166 
z
" clip-path="url(#pc666a1c5bb)" style="fill: #aeccdb"/>
   </g>
   <g id="patch_25">
    <path d="M 196.836429 352.077446 
C 206.676979 352.077446 216.115811 349.053501 223.074131 343.671598 
C 230.032451 338.289695 233.942143 330.989244 233.942143 323.378084 
C 233.942143 315.766925 230.032451 308.466474 223.074131 303.084571 
C 216.115811 297.702668 206.676979 294.678722 196.836429 294.678722 
C 186.995878 294.678722 177.557046 297.702668 170.598726 303.084571 
C 163.640406 308.466474 159.730714 315.766925 159.730714 323.378084 
C 159.730714 330.989244 163.640406 338.289695 170.598726 343.671598 
C 177.557046 349.053501 186.995878 352.077446 196.836429 352.077446 
z
" clip-path="url(#pc666a1c5bb)" style="fill: #3274a1"/>
   </g>
   <g id="patch_26">
    <path d="M 289.600714 352.077446 
C 299.441265 352.077446 308.880097 349.053501 315.838416 343.671598 
C 322.796736 338.289695 326.706429 330.989244 326.706429 323.378084 
C 326.706429 315.766925 322.796736 308.466474 315.838416 303.084571 
C 308.880097 297.702668 299.441265 294.678722 289.600714 294.678722 
C 279.760164 294.678722 270.321332 297.702668 263.363012 303.084571 
C 256.404692 308.466474 252.495 315.766925 252.495 323.378084 
C 252.495 330.989244 256.404692 338.289695 263.363012 343.671598 
C 270.321332 349.053501 279.760164 352.077446 289.600714 352.077446 
z
" clip-path="url(#pc666a1c5bb)" style="fill: #b3d495"/>
   </g>
   <g id="patch_27">
    <path d="M 382.365 352.077446 
C 392.20555 352.077446 401.644382 349.053501 408.602702 343.671598 
C 415.561022 338.289695 419.470714 330.989244 419.470714 323.378084 
C 419.470714 315.766925 415.561022 308.466474 408.602702 303.084571 
C 401.644382 297.702668 392.20555 294.678722 382.365 294.678722 
C 372.52445 294.678722 363.085618 297.702668 356.127298 303.084571 
C 349.168978 308.466474 345.259286 315.766925 345.259286 323.378084 
C 345.259286 330.989244 349.168978 338.289695 356.127298 343.671598 
C 363.085618 349.053501 372.52445 352.077446 382.365 352.077446 
z
" clip-path="url(#pc666a1c5bb)" style="fill: #40923a"/>
   </g>
   <g id="patch_28">
    <path d="M 475.129286 352.077446 
C 484.969836 352.077446 494.408668 349.053501 501.366988 343.671598 
C 508.325308 338.289695 512.235 330.989244 512.235 323.378084 
C 512.235 315.766925 508.325308 308.466474 501.366988 303.084571 
C 494.408668 297.702668 484.969836 294.678722 475.129286 294.678722 
C 465.288735 294.678722 455.849903 297.702668 448.891584 303.084571 
C 441.933264 308.466474 438.023571 315.766925 438.023571 323.378084 
C 438.023571 330.989244 441.933264 338.289695 448.891584 343.671598 
C 455.849903 349.053501 465.288735 352.077446 475.129286 352.077446 
z
" clip-path="url(#pc666a1c5bb)" style="fill: #efa6a5"/>
   </g>
   <g id="patch_29">
    <path d="M 567.893571 352.077446 
C 577.734122 352.077446 587.172954 349.053501 594.131274 343.671598 
C 601.089594 338.289695 604.999286 330.989244 604.999286 323.378084 
C 604.999286 315.766925 601.089594 308.466474 594.131274 303.084571 
C 587.172954 297.702668 577.734122 294.678722 567.893571 294.678722 
C 558.053021 294.678722 548.614189 297.702668 541.655869 303.084571 
C 534.697549 308.466474 530.787857 315.766925 530.787857 323.378084 
C 530.787857 330.989244 534.697549 338.289695 541.655869 343.671598 
C 548.614189 349.053501 558.053021 352.077446 567.893571 352.077446 
z
" clip-path="url(#pc666a1c5bb)" style="fill: #ca3335"/>
   </g>
   <g id="patch_30">
    <path d="M 660.657857 212.151702 
C 670.498408 212.151702 679.937239 209.127757 686.895559 203.745854 
C 693.853879 198.363951 697.763571 191.0635 697.763571 183.45234 
C 697.763571 175.841181 693.853879 168.54073 686.895559 163.158827 
C 679.937239 157.776924 670.498408 154.752978 660.657857 154.752978 
C 650.817307 154.752978 641.378475 157.776924 634.420155 163.158827 
C 627.461835 168.54073 623.552143 175.841181 623.552143 183.45234 
C 623.552143 191.0635 627.461835 198.363951 634.420155 203.745854 
C 641.378475 209.127757 650.817307 212.151702 660.657857 212.151702 
z
" clip-path="url(#pc666a1c5bb)" style="fill: #ebbd81"/>
   </g>
   <g id="text_17">
    <!-- Weekly Usage Summary -->
    <g style="fill: #757a7f" transform="translate(301.563125 23.04) scale(0.14 -0.14)">
     <defs>
      <path id="Arial-BoldMT-57" d="M 1116 0 
L 22 4581 
L 969 4581 
L 1659 1434 
L 2497 4581 
L 3597 4581 
L 4400 1381 
L 5103 4581 
L 6034 4581 
L 4922 0 
L 3941 0 
L 3028 3425 
L 2119 0 
L 1116 0 
z
" transform="scale(0.015625)"/>
      <path id="Arial-BoldMT-65" d="M 2381 1056 
L 3256 909 
Q 3088 428 2723 176 
Q 2359 -75 1813 -75 
Q 947 -75 531 491 
Q 203 944 203 1634 
Q 203 2459 634 2926 
Q 1066 3394 1725 3394 
Q 2466 3394 2894 2905 
Q 3322 2416 3303 1406 
L 1103 1406 
Q 1113 1016 1316 798 
Q 1519 581 1822 581 
Q 2028 581 2168 693 
Q 2309 806 2381 1056 
z
M 2431 1944 
Q 2422 2325 2234 2523 
Q 2047 2722 1778 2722 
Q 1491 2722 1303 2513 
Q 1116 2303 1119 1944 
L 2431 1944 
z
" transform="scale(0.015625)"/>
      <path id="Arial-BoldMT-6b" d="M 428 0 
L 428 4581 
L 1306 4581 
L 1306 2150 
L 2334 3319 
L 3416 3319 
L 2281 2106 
L 3497 0 
L 2550 0 
L 1716 1491 
L 1306 1063 
L 1306 0 
L 428 0 
z
" transform="scale(0.015625)"/>
      <path id="Arial-BoldMT-6c" d="M 459 0 
L 459 4581 
L 1338 4581 
L 1338 0 
L 459 0 
z
" transform="scale(0.015625)"/>
      <path id="Arial-BoldMT-79" d="M 44 3319 
L 978 3319 
L 1772 963 
L 2547 3319 
L 3456 3319 
L 2284 125 
L 2075 -453 
Q 1959 -744 1854 -897 
Q 1750 -1050 1614 -1145 
Q 1478 -1241 1279 -1294 
Q 1081 -1347 831 -1347 
Q 578 -1347 334 -1294 
L 256 -606 
Q 463 -647 628 -647 
Q 934 -647 1081 -467 
Q 1228 -288 1306 -9 
L 44 3319 
z
" transform="scale(0.015625)"/>
      <path id="Arial-BoldMT-20" transform="scale(0.015625)"/>
      <path id="Arial-BoldMT-55" d="M 459 4581 
L 1384 4581 
L 1384 2100 
Q 1384 1509 1419 1334 
Q 1478 1053 1701 883 
Q 1925 713 2313 713 
Q 2706 713 2906 873 
Q 3106 1034 3147 1268 
Q 3188 1503 3188 2047 
L 3188 4581 
L 4113 4581 
L 4113 2175 
Q 4113 1350 4038 1009 
Q 3963 669 3761 434 
Q 3559 200 3221 61 
Q 2884 -78 2341 -78 
Q 1684 -78 1345 73 
Q 1006 225 809 467 
Q 613 709 550 975 
Q 459 1369 459 2138 
L 459 4581 
z
" transform="scale(0.015625)"/>
      <path id="Arial-BoldMT-73" d="M 150 947 
L 1031 1081 
Q 1088 825 1259 692 
Q 1431 559 1741 559 
Q 2081 559 2253 684 
Q 2369 772 2369 919 
Q 2369 1019 2306 1084 
Q 2241 1147 2013 1200 
Q 950 1434 666 1628 
Q 272 1897 272 2375 
Q 272 2806 612 3100 
Q 953 3394 1669 3394 
Q 2350 3394 2681 3172 
Q 3013 2950 3138 2516 
L 2309 2363 
Q 2256 2556 2107 2659 
Q 1959 2763 1684 2763 
Q 1338 2763 1188 2666 
Q 1088 2597 1088 2488 
Q 1088 2394 1175 2328 
Q 1294 2241 1995 2081 
Q 2697 1922 2975 1691 
Q 3250 1456 3250 1038 
Q 3250 581 2869 253 
Q 2488 -75 1741 -75 
Q 1063 -75 667 200 
Q 272 475 150 947 
z
" transform="scale(0.015625)"/>
      <path id="Arial-BoldMT-61" d="M 1116 2306 
L 319 2450 
Q 453 2931 781 3162 
Q 1109 3394 1756 3394 
Q 2344 3394 2631 3255 
Q 2919 3116 3036 2902 
Q 3153 2688 3153 2116 
L 3144 1091 
Q 3144 653 3186 445 
Q 3228 238 3344 0 
L 2475 0 
Q 2441 88 2391 259 
Q 2369 338 2359 363 
Q 2134 144 1878 34 
Q 1622 -75 1331 -75 
Q 819 -75 523 203 
Q 228 481 228 906 
Q 228 1188 362 1408 
Q 497 1628 739 1745 
Q 981 1863 1438 1950 
Q 2053 2066 2291 2166 
L 2291 2253 
Q 2291 2506 2166 2614 
Q 2041 2722 1694 2722 
Q 1459 2722 1328 2630 
Q 1197 2538 1116 2306 
z
M 2291 1594 
Q 2122 1538 1756 1459 
Q 1391 1381 1278 1306 
Q 1106 1184 1106 997 
Q 1106 813 1243 678 
Q 1381 544 1594 544 
Q 1831 544 2047 700 
Q 2206 819 2256 991 
Q 2291 1103 2291 1419 
L 2291 1594 
z
" transform="scale(0.015625)"/>
      <path id="Arial-BoldMT-67" d="M 378 -219 
L 1381 -341 
Q 1406 -516 1497 -581 
Q 1622 -675 1891 -675 
Q 2234 -675 2406 -572 
Q 2522 -503 2581 -350 
Q 2622 -241 2622 53 
L 2622 538 
Q 2228 0 1628 0 
Q 959 0 569 566 
Q 263 1013 263 1678 
Q 263 2513 664 2953 
Q 1066 3394 1663 3394 
Q 2278 3394 2678 2853 
L 2678 3319 
L 3500 3319 
L 3500 341 
Q 3500 -247 3403 -537 
Q 3306 -828 3131 -993 
Q 2956 -1159 2664 -1253 
Q 2372 -1347 1925 -1347 
Q 1081 -1347 728 -1058 
Q 375 -769 375 -325 
Q 375 -281 378 -219 
z
M 1163 1728 
Q 1163 1200 1367 954 
Q 1572 709 1872 709 
Q 2194 709 2416 961 
Q 2638 1213 2638 1706 
Q 2638 2222 2425 2472 
Q 2213 2722 1888 2722 
Q 1572 2722 1367 2476 
Q 1163 2231 1163 1728 
z
" transform="scale(0.015625)"/>
      <path id="Arial-BoldMT-53" d="M 231 1491 
L 1131 1578 
Q 1213 1125 1461 912 
Q 1709 700 2131 700 
Q 2578 700 2804 889 
Q 3031 1078 3031 1331 
Q 3031 1494 2936 1608 
Q 2841 1722 2603 1806 
Q 2441 1863 1863 2006 
Q 1119 2191 819 2459 
Q 397 2838 397 3381 
Q 397 3731 595 4036 
Q 794 4341 1167 4500 
Q 1541 4659 2069 4659 
Q 2931 4659 3367 4281 
Q 3803 3903 3825 3272 
L 2900 3231 
Q 2841 3584 2645 3739 
Q 2450 3894 2059 3894 
Q 1656 3894 1428 3728 
Q 1281 3622 1281 3444 
Q 1281 3281 1419 3166 
Q 1594 3019 2269 2859 
Q 2944 2700 3267 2529 
Q 3591 2359 3773 2064 
Q 3956 1769 3956 1334 
Q 3956 941 3737 597 
Q 3519 253 3119 86 
Q 2719 -81 2122 -81 
Q 1253 -81 787 320 
Q 322 722 231 1491 
z
" transform="scale(0.015625)"/>
      <path id="Arial-BoldMT-75" d="M 2644 0 
L 2644 497 
Q 2463 231 2167 78 
Q 1872 -75 1544 -75 
Q 1209 -75 943 72 
Q 678 219 559 484 
Q 441 750 441 1219 
L 441 3319 
L 1319 3319 
L 1319 1794 
Q 1319 1094 1367 936 
Q 1416 778 1544 686 
Q 1672 594 1869 594 
Q 2094 594 2272 717 
Q 2450 841 2515 1023 
Q 2581 1206 2581 1919 
L 2581 3319 
L 3459 3319 
L 3459 0 
L 2644 0 
z
" transform="scale(0.015625)"/>
      <path id="Arial-BoldMT-6d" d="M 394 3319 
L 1203 3319 
L 1203 2866 
Q 1638 3394 2238 3394 
Q 2556 3394 2790 3262 
Q 3025 3131 3175 2866 
Q 3394 3131 3647 3262 
Q 3900 3394 4188 3394 
Q 4553 3394 4806 3245 
Q 5059 3097 5184 2809 
Q 5275 2597 5275 2122 
L 5275 0 
L 4397 0 
L 4397 1897 
Q 4397 2391 4306 2534 
Q 4184 2722 3931 2722 
Q 3747 2722 3584 2609 
Q 3422 2497 3350 2280 
Q 3278 2063 3278 1594 
L 3278 0 
L 2400 0 
L 2400 1819 
Q 2400 2303 2353 2443 
Q 2306 2584 2207 2653 
Q 2109 2722 1941 2722 
Q 1738 2722 1575 2612 
Q 1413 2503 1342 2297 
Q 1272 2091 1272 1613 
L 1272 0 
L 394 0 
L 394 3319 
z
" transform="scale(0.015625)"/>
      <path id="Arial-BoldMT-72" d="M 1300 0 
L 422 0 
L 422 3319 
L 1238 3319 
L 1238 2847 
Q 1447 3181 1614 3287 
Q 1781 3394 1994 3394 
Q 2294 3394 2572 3228 
L 2300 2463 
Q 2078 2606 1888 2606 
Q 1703 2606 1575 2504 
Q 1447 2403 1373 2137 
Q 1300 1872 1300 1025 
L 1300 0 
z
" transform="scale(0.015625)"/>
     </defs>
     <use xlink:href="#Arial-BoldMT-57"/>
     <use xlink:href="#Arial-BoldMT-65" transform="translate(92.634766 0)"/>
     <use xlink:href="#Arial-BoldMT-65" transform="translate(148.25 0)"/>
     <use xlink:href="#Arial-BoldMT-6b" transform="translate(203.865234 0)"/>
     <use xlink:href="#Arial-BoldMT-6c" transform="translate(259.480469 0)"/>
     <use xlink:href="#Arial-BoldMT-79" transform="translate(287.263672 0)"/>
     <use xlink:href="#Arial-BoldMT-20" transform="translate(342.878906 0)"/>
     <use xlink:href="#Arial-BoldMT-55" transform="translate(370.662109 0)"/>
     <use xlink:href="#Arial-BoldMT-73" transform="translate(442.878906 0)"/>
     <use xlink:href="#Arial-BoldMT-61" transform="translate(498.494141 0)"/>
     <use xlink:href="#Arial-BoldMT-67" transform="translate(554.109375 0)"/>
     <use xlink:href="#Arial-BoldMT-65" transform="translate(615.193359 0)"/>
     <use xlink:href="#Arial-BoldMT-20" transform="translate(670.808594 0)"/>
     <use xlink:href="#Arial-BoldMT-53" transform="translate(698.591797 0)"/>
     <use xlink:href="#Arial-BoldMT-75" transform="translate(765.291016 0)"/>
     <use xlink:href="#Arial-BoldMT-6d" transform="translate(826.375 0)"/>
     <use xlink:href="#Arial-BoldMT-6d" transform="translate(915.291016 0)"/>
     <use xlink:href="#Arial-BoldMT-61" transform="translate(1004.207031 0)"/>
     <use xlink:href="#Arial-BoldMT-72" transform="translate(1059.822266 0)"/>
     <use xlink:href="#Arial-BoldMT-79" transform="translate(1098.738281 0)"/>
    </g>
   </g>
  </g>
 </g>
 <defs>
  <clipPath id="pc666a1c5bb">
   <rect x="57.69" y="43.04" width="649.35" height="251.638722"/>
  </clipPath>
 </defs>
</svg>
