<?xml version="1.0" encoding="utf-8" standalone="no"?>
<!DOCTYPE svg PUBLIC "-//W3C//DTD SVG 1.1//EN"
  "http://www.w3.org/Graphics/SVG/1.1/DTD/svg11.dtd">
<svg xmlns:xlink="http://www.w3.org/1999/xlink" width="720pt" height="360pt" viewBox="0 0 720 360" xmlns="http://www.w3.org/2000/svg" version="1.1">
 <metadata>
  <rdf:RDF xmlns:dc="http://purl.org/dc/elements/1.1/" xmlns:cc="http://creativecommons.org/ns#" xmlns:rdf="http://www.w3.org/1999/02/22-rdf-syntax-ns#">
   <cc:Work>
    <dc:type rdf:resource="http://purl.org/dc/dcmitype/StillImage"/>
    <dc:date>2025-07-20T01:20:41.013299</dc:date>
    <dc:format>image/svg+xml</dc:format>
    <dc:creator>
     <cc:Agent>
      <dc:title>Matplotlib v3.10.3, https://matplotlib.org/</dc:title>
     </cc:Agent>
    </dc:creator>
   </cc:Work>
  </rdf:RDF>
 </metadata>
 <defs>
  <style type="text/css">*{stroke-linejoin: round; stroke-linecap: butt}</style>
 </defs>
 <g id="figure_1">
  <g id="patch_1">
   <path d="M 0 360 
L 720 360 
L 720 0 
L 0 0 
L 0 360 
z
" style="fill: none"/>
  </g>
  <g id="axes_1">
   <g id="patch_2">
    <path d="M 61.56 289.683013 
L 707.04 289.683013 
L 707.04 43.76 
L 61.56 43.76 
L 61.56 289.683013 
z
" style="fill: none"/>
   </g>
   <g id="patch_3">
    <path d="M 75.391714 290.414273 
L 149.160857 290.414273 
L 149.160857 105.818592 
L 75.391714 105.818592 
z
" clip-path="url(#p3e9d0e85a6)" style="fill: #808080; opacity: 0.3; stroke: #808080; stroke-linejoin: miter"/>
   </g>
   <g id="patch_4">
    <path d="M 112.276286 135.069008 
C 122.058188 135.069008 131.440767 131.987 138.357616 126.50176 
C 145.274466 121.016519 149.160857 113.575893 149.160857 105.818592 
C 149.160857 98.061291 145.274466 90.620664 138.357616 85.135424 
C 131.440767 79.650184 122.058188 76.568175 112.276286 76.568175 
C 102.494383 76.568175 93.111805 79.650184 86.194955 85.135424 
C 79.278105 90.620664 75.391714 98.061291 75.391714 105.818592 
C 75.391714 113.575893 79.278105 121.016519 86.194955 126.50176 
C 93.111805 131.987 102.494383 135.069008 112.276286 135.069008 
z
" clip-path="url(#p3e9d0e85a6)" style="fill: #808080; opacity: 0.3; stroke: #808080; stroke-linejoin: miter"/>
   </g>
   <g id="patch_5">
    <path d="M 167.603143 290.414273 
L 241.372286 290.414273 
L 241.372286 311.511775 
L 167.603143 311.511775 
z
" clip-path="url(#p3e9d0e85a6)" style="fill: #808080; opacity: 0.3; stroke: #808080; stroke-linejoin: miter"/>
   </g>
   <g id="patch_6">
    <path d="M 204.487714 340.762192 
C 214.269617 340.762192 223.652195 337.680184 230.569045 332.194943 
C 237.485895 326.709703 241.372286 319.269077 241.372286 311.511775 
C 241.372286 303.754474 237.485895 296.313848 230.569045 290.828607 
C 223.652195 285.343367 214.269617 282.261359 204.487714 282.261359 
C 194.705812 282.261359 185.323233 285.343367 178.406384 290.828607 
C 171.489534 296.313848 167.603143 303.754474 167.603143 311.511775 
C 167.603143 319.269077 171.489534 326.709703 178.406384 332.194943 
C 185.323233 337.680184 194.705812 340.762192 204.487714 340.762192 
z
" clip-path="url(#p3e9d0e85a6)" style="fill: #808080; opacity: 0.3; stroke: #808080; stroke-linejoin: miter"/>
   </g>
   <g id="patch_7">
    <path d="M 259.814571 290.414273 
L 333.583714 290.414273 
L 333.583714 286.145034 
L 259.814571 286.145034 
z
" clip-path="url(#p3e9d0e85a6)" style="fill: #808080; opacity: 0.3; stroke: #808080; stroke-linejoin: miter"/>
   </g>
   <g id="patch_8">
    <path d="M 296.699143 315.395451 
C 306.481046 315.395451 315.863624 312.313443 322.780473 306.828202 
C 329.697323 301.342962 333.583714 293.902336 333.583714 286.145034 
C 333.583714 278.387733 329.697323 270.947107 322.780473 265.461867 
C 315.863624 259.976626 306.481046 256.894618 296.699143 256.894618 
C 286.91724 256.894618 277.534662 259.976626 270.617812 265.461867 
C 263.700963 270.947107 259.814571 278.387733 259.814571 286.145034 
C 259.814571 293.902336 263.700963 301.342962 270.617812 306.828202 
C 277.534662 312.313443 286.91724 315.395451 296.699143 315.395451 
z
" clip-path="url(#p3e9d0e85a6)" style="fill: #808080; opacity: 0.3; stroke: #808080; stroke-linejoin: miter"/>
   </g>
   <g id="patch_9">
    <path d="M 352.026 290.414273 
L 425.795143 290.414273 
L 425.795143 236.564904 
L 352.026 236.564904 
z
" clip-path="url(#p3e9d0e85a6)" style="fill: #808080; opacity: 0.3; stroke: #808080; stroke-linejoin: miter"/>
   </g>
   <g id="patch_10">
    <path d="M 388.910571 265.81532 
C 398.692474 265.81532 408.075052 262.733312 414.991902 257.248072 
C 421.908752 251.762831 425.795143 244.322205 425.795143 236.564904 
C 425.795143 228.807603 421.908752 221.366976 414.991902 215.881736 
C 408.075052 210.396496 398.692474 207.314487 388.910571 207.314487 
C 379.128669 207.314487 369.746091 210.396496 362.829241 215.881736 
C 355.912391 221.366976 352.026 228.807603 352.026 236.564904 
C 352.026 244.322205 355.912391 251.762831 362.829241 257.248072 
C 369.746091 262.733312 379.128669 265.81532 388.910571 265.81532 
z
" clip-path="url(#p3e9d0e85a6)" style="fill: #808080; opacity: 0.3; stroke: #808080; stroke-linejoin: miter"/>
   </g>
   <g id="patch_11">
    <path d="M 444.237429 290.414273 
L 518.006571 290.414273 
L 518.006571 292.652937 
L 444.237429 292.652937 
z
" clip-path="url(#p3e9d0e85a6)" style="fill: #808080; opacity: 0.3; stroke: #808080; stroke-linejoin: miter"/>
   </g>
   <g id="patch_12">
    <path d="M 481.122 321.903354 
C 490.903903 321.903354 500.286481 318.821346 507.203331 313.336105 
C 514.12018 307.850865 518.006571 300.410238 518.006571 292.652937 
C 518.006571 284.895636 514.12018 277.45501 507.203331 271.969769 
C 500.286481 266.484529 490.903903 263.402521 481.122 263.402521 
C 471.340097 263.402521 461.957519 266.484529 455.040669 271.969769 
C 448.12382 277.45501 444.237429 284.895636 444.237429 292.652937 
C 444.237429 300.410238 448.12382 307.850865 455.040669 313.336105 
C 461.957519 318.821346 471.340097 321.903354 481.122 321.903354 
z
" clip-path="url(#p3e9d0e85a6)" style="fill: #808080; opacity: 0.3; stroke: #808080; stroke-linejoin: miter"/>
   </g>
   <g id="patch_13">
    <path d="M 536.448857 290.414273 
L 610.218 290.414273 
L 610.218 319.66469 
L 536.448857 319.66469 
z
" clip-path="url(#p3e9d0e85a6)" style="fill: #808080; opacity: 0.3; stroke: #808080; stroke-linejoin: miter"/>
   </g>
   <g id="patch_14">
    <path d="M 573.333429 348.915107 
C 583.115331 348.915107 592.497909 345.833098 599.414759 340.347858 
C 606.331609 334.862618 610.218 327.421991 610.218 319.66469 
C 610.218 311.907389 606.331609 304.466762 599.414759 298.981522 
C 592.497909 293.496282 583.115331 290.414273 573.333429 290.414273 
C 563.551526 290.414273 554.168948 293.496282 547.252098 298.981522 
C 540.335248 304.466762 536.448857 311.907389 536.448857 319.66469 
C 536.448857 327.421991 540.335248 334.862618 547.252098 340.347858 
C 554.168948 345.833098 563.551526 348.915107 573.333429 348.915107 
z
" clip-path="url(#p3e9d0e85a6)" style="fill: #808080; opacity: 0.3; stroke: #808080; stroke-linejoin: miter"/>
   </g>
   <g id="patch_15">
    <path d="M 628.660286 290.414273 
L 702.429429 290.414273 
L 702.429429 319.66469 
L 628.660286 319.66469 
z
" clip-path="url(#p3e9d0e85a6)" style="fill: #808080; opacity: 0.3; stroke: #808080; stroke-linejoin: miter"/>
   </g>
   <g id="patch_16">
    <path d="M 665.544857 348.915107 
C 675.32676 348.915107 684.709338 345.833098 691.626188 340.347858 
C 698.543037 334.862618 702.429429 327.421991 702.429429 319.66469 
C 702.429429 311.907389 698.543037 304.466762 691.626188 298.981522 
C 684.709338 293.496282 675.32676 290.414273 665.544857 290.414273 
C 655.762954 290.414273 646.380376 293.496282 639.463527 298.981522 
C 632.546677 304.466762 628.660286 311.907389 628.660286 319.66469 
C 628.660286 327.421991 632.546677 334.862618 639.463527 340.347858 
C 646.380376 345.833098 655.762954 348.915107 665.544857 348.915107 
z
" clip-path="url(#p3e9d0e85a6)" style="fill: #808080; opacity: 0.3; stroke: #808080; stroke-linejoin: miter"/>
   </g>
   <g id="matplotlib.axis_1">
    <g id="xtick_1">
     <g id="text_1">
      <!-- 2025-07-13 -->
      <g style="fill: #757a7f" transform="translate(89.069911 345.649872) rotate(-45) scale(0.1 -0.1)">
       <defs>
        <path id="DejaVuSans-32" d="M 1228 531 
L 3431 531 
L 3431 0 
L 469 0 
L 469 531 
Q 828 903 1448 1529 
Q 2069 2156 2228 2338 
Q 2531 2678 2651 2914 
Q 2772 3150 2772 3378 
Q 2772 3750 2511 3984 
Q 2250 4219 1831 4219 
Q 1534 4219 1204 4116 
Q 875 4013 500 3803 
L 500 4441 
Q 881 4594 1212 4672 
Q 1544 4750 1819 4750 
Q 2544 4750 2975 4387 
Q 3406 4025 3406 3419 
Q 3406 3131 3298 2873 
Q 3191 2616 2906 2266 
Q 2828 2175 2409 1742 
Q 1991 1309 1228 531 
z
" transform="scale(0.015625)"/>
        <path id="DejaVuSans-30" d="M 2034 4250 
Q 1547 4250 1301 3770 
Q 1056 3291 1056 2328 
Q 1056 1369 1301 889 
Q 1547 409 2034 409 
Q 2525 409 2770 889 
Q 3016 1369 3016 2328 
Q 3016 3291 2770 3770 
Q 2525 4250 2034 4250 
z
M 2034 4750 
Q 2819 4750 3233 4129 
Q 3647 3509 3647 2328 
Q 3647 1150 3233 529 
Q 2819 -91 2034 -91 
Q 1250 -91 836 529 
Q 422 1150 422 2328 
Q 422 3509 836 4129 
Q 1250 4750 2034 4750 
z
" transform="scale(0.015625)"/>
        <path id="DejaVuSans-35" d="M 691 4666 
L 3169 4666 
L 3169 4134 
L 1269 4134 
L 1269 2991 
Q 1406 3038 1543 3061 
Q 1681 3084 1819 3084 
Q 2600 3084 3056 2656 
Q 3513 2228 3513 1497 
Q 3513 744 3044 326 
Q 2575 -91 1722 -91 
Q 1428 -91 1123 -41 
Q 819 9 494 109 
L 494 744 
Q 775 591 1075 516 
Q 1375 441 1709 441 
Q 2250 441 2565 725 
Q 2881 1009 2881 1497 
Q 2881 1984 2565 2268 
Q 2250 2553 1709 2553 
Q 1456 2553 1204 2497 
Q 953 2441 691 2322 
L 691 4666 
z
" transform="scale(0.015625)"/>
        <path id="DejaVuSans-2d" d="M 313 2009 
L 1997 2009 
L 1997 1497 
L 313 1497 
L 313 2009 
z
" transform="scale(0.015625)"/>
        <path id="DejaVuSans-37" d="M 525 4666 
L 3525 4666 
L 3525 4397 
L 1831 0 
L 1172 0 
L 2766 4134 
L 525 4134 
L 525 4666 
z
" transform="scale(0.015625)"/>
        <path id="DejaVuSans-31" d="M 794 531 
L 1825 531 
L 1825 4091 
L 703 3866 
L 703 4441 
L 1819 4666 
L 2450 4666 
L 2450 531 
L 3481 531 
L 3481 0 
L 794 0 
L 794 531 
z
" transform="scale(0.015625)"/>
        <path id="DejaVuSans-33" d="M 2597 2516 
Q 3050 2419 3304 2112 
Q 3559 1806 3559 1356 
Q 3559 666 3084 287 
Q 2609 -91 1734 -91 
Q 1441 -91 1130 -33 
Q 819 25 488 141 
L 488 750 
Q 750 597 1062 519 
Q 1375 441 1716 441 
Q 2309 441 2620 675 
Q 2931 909 2931 1356 
Q 2931 1769 2642 2001 
Q 2353 2234 1838 2234 
L 1294 2234 
L 1294 2753 
L 1863 2753 
Q 2328 2753 2575 2939 
Q 2822 3125 2822 3475 
Q 2822 3834 2567 4026 
Q 2313 4219 1838 4219 
Q 1578 4219 1281 4162 
Q 984 4106 628 3988 
L 628 4550 
Q 988 4650 1302 4700 
Q 1616 4750 1894 4750 
Q 2613 4750 3031 4423 
Q 3450 4097 3450 3541 
Q 3450 3153 3228 2886 
Q 3006 2619 2597 2516 
z
" transform="scale(0.015625)"/>
       </defs>
       <use xlink:href="#DejaVuSans-32"/>
       <use xlink:href="#DejaVuSans-30" transform="translate(63.623047 0)"/>
       <use xlink:href="#DejaVuSans-32" transform="translate(127.246094 0)"/>
       <use xlink:href="#DejaVuSans-35" transform="translate(190.869141 0)"/>
       <use xlink:href="#DejaVuSans-2d" transform="translate(254.492188 0)"/>
       <use xlink:href="#DejaVuSans-30" transform="translate(290.576172 0)"/>
       <use xlink:href="#DejaVuSans-37" transform="translate(354.199219 0)"/>
       <use xlink:href="#DejaVuSans-2d" transform="translate(417.822266 0)"/>
       <use xlink:href="#DejaVuSans-31" transform="translate(453.90625 0)"/>
       <use xlink:href="#DejaVuSans-33" transform="translate(517.529297 0)"/>
      </g>
     </g>
    </g>
    <g id="xtick_2">
     <g id="text_2">
      <!-- 2025-07-14 -->
      <g style="fill: #757a7f" transform="translate(181.281339 345.649872) rotate(-45) scale(0.1 -0.1)">
       <defs>
        <path id="DejaVuSans-34" d="M 2419 4116 
L 825 1625 
L 2419 1625 
L 2419 4116 
z
M 2253 4666 
L 3047 4666 
L 3047 1625 
L 3713 1625 
L 3713 1100 
L 3047 1100 
L 3047 0 
L 2419 0 
L 2419 1100 
L 313 1100 
L 313 1709 
L 2253 4666 
z
" transform="scale(0.015625)"/>
       </defs>
       <use xlink:href="#DejaVuSans-32"/>
       <use xlink:href="#DejaVuSans-30" transform="translate(63.623047 0)"/>
       <use xlink:href="#DejaVuSans-32" transform="translate(127.246094 0)"/>
       <use xlink:href="#DejaVuSans-35" transform="translate(190.869141 0)"/>
       <use xlink:href="#DejaVuSans-2d" transform="translate(254.492188 0)"/>
       <use xlink:href="#DejaVuSans-30" transform="translate(290.576172 0)"/>
       <use xlink:href="#DejaVuSans-37" transform="translate(354.199219 0)"/>
       <use xlink:href="#DejaVuSans-2d" transform="translate(417.822266 0)"/>
       <use xlink:href="#DejaVuSans-31" transform="translate(453.90625 0)"/>
       <use xlink:href="#DejaVuSans-34" transform="translate(517.529297 0)"/>
      </g>
     </g>
    </g>
    <g id="xtick_3">
     <g id="text_3">
      <!-- 2025-07-15 -->
      <g style="fill: #757a7f" transform="translate(273.492768 345.649872) rotate(-45) scale(0.1 -0.1)">
       <use xlink:href="#DejaVuSans-32"/>
       <use xlink:href="#DejaVuSans-30" transform="translate(63.623047 0)"/>
       <use xlink:href="#DejaVuSans-32" transform="translate(127.246094 0)"/>
       <use xlink:href="#DejaVuSans-35" transform="translate(190.869141 0)"/>
       <use xlink:href="#DejaVuSans-2d" transform="translate(254.492188 0)"/>
       <use xlink:href="#DejaVuSans-30" transform="translate(290.576172 0)"/>
       <use xlink:href="#DejaVuSans-37" transform="translate(354.199219 0)"/>
       <use xlink:href="#DejaVuSans-2d" transform="translate(417.822266 0)"/>
       <use xlink:href="#DejaVuSans-31" transform="translate(453.90625 0)"/>
       <use xlink:href="#DejaVuSans-35" transform="translate(517.529297 0)"/>
      </g>
     </g>
    </g>
    <g id="xtick_4">
     <g id="text_4">
      <!-- 2025-07-16 -->
      <g style="fill: #757a7f" transform="translate(365.704197 345.649872) rotate(-45) scale(0.1 -0.1)">
       <defs>
        <path id="DejaVuSans-36" d="M 2113 2584 
Q 1688 2584 1439 2293 
Q 1191 2003 1191 1497 
Q 1191 994 1439 701 
Q 1688 409 2113 409 
Q 2538 409 2786 701 
Q 3034 994 3034 1497 
Q 3034 2003 2786 2293 
Q 2538 2584 2113 2584 
z
M 3366 4563 
L 3366 3988 
Q 3128 4100 2886 4159 
Q 2644 4219 2406 4219 
Q 1781 4219 1451 3797 
Q 1122 3375 1075 2522 
Q 1259 2794 1537 2939 
Q 1816 3084 2150 3084 
Q 2853 3084 3261 2657 
Q 3669 2231 3669 1497 
Q 3669 778 3244 343 
Q 2819 -91 2113 -91 
Q 1303 -91 875 529 
Q 447 1150 447 2328 
Q 447 3434 972 4092 
Q 1497 4750 2381 4750 
Q 2619 4750 2861 4703 
Q 3103 4656 3366 4563 
z
" transform="scale(0.015625)"/>
       </defs>
       <use xlink:href="#DejaVuSans-32"/>
       <use xlink:href="#DejaVuSans-30" transform="translate(63.623047 0)"/>
       <use xlink:href="#DejaVuSans-32" transform="translate(127.246094 0)"/>
       <use xlink:href="#DejaVuSans-35" transform="translate(190.869141 0)"/>
       <use xlink:href="#DejaVuSans-2d" transform="translate(254.492188 0)"/>
       <use xlink:href="#DejaVuSans-30" transform="translate(290.576172 0)"/>
       <use xlink:href="#DejaVuSans-37" transform="translate(354.199219 0)"/>
       <use xlink:href="#DejaVuSans-2d" transform="translate(417.822266 0)"/>
       <use xlink:href="#DejaVuSans-31" transform="translate(453.90625 0)"/>
       <use xlink:href="#DejaVuSans-36" transform="translate(517.529297 0)"/>
      </g>
     </g>
    </g>
    <g id="xtick_5">
     <g id="text_5">
      <!-- 2025-07-17 -->
      <g style="fill: #757a7f" transform="translate(457.915625 345.649872) rotate(-45) scale(0.1 -0.1)">
       <use xlink:href="#DejaVuSans-32"/>
       <use xlink:href="#DejaVuSans-30" transform="translate(63.623047 0)"/>
       <use xlink:href="#DejaVuSans-32" transform="translate(127.246094 0)"/>
       <use xlink:href="#DejaVuSans-35" transform="translate(190.869141 0)"/>
       <use xlink:href="#DejaVuSans-2d" transform="translate(254.492188 0)"/>
       <use xlink:href="#DejaVuSans-30" transform="translate(290.576172 0)"/>
       <use xlink:href="#DejaVuSans-37" transform="translate(354.199219 0)"/>
       <use xlink:href="#DejaVuSans-2d" transform="translate(417.822266 0)"/>
       <use xlink:href="#DejaVuSans-31" transform="translate(453.90625 0)"/>
       <use xlink:href="#DejaVuSans-37" transform="translate(517.529297 0)"/>
      </g>
     </g>
    </g>
    <g id="xtick_6">
     <g id="text_6">
      <!-- 2025-07-18 -->
      <g style="fill: #757a7f" transform="translate(550.127054 345.649872) rotate(-45) scale(0.1 -0.1)">
       <defs>
        <path id="DejaVuSans-38" d="M 2034 2216 
Q 1584 2216 1326 1975 
Q 1069 1734 1069 1313 
Q 1069 891 1326 650 
Q 1584 409 2034 409 
Q 2484 409 2743 651 
Q 3003 894 3003 1313 
Q 3003 1734 2745 1975 
Q 2488 2216 2034 2216 
z
M 1403 2484 
Q 997 2584 770 2862 
Q 544 3141 544 3541 
Q 544 4100 942 4425 
Q 1341 4750 2034 4750 
Q 2731 4750 3128 4425 
Q 3525 4100 3525 3541 
Q 3525 3141 3298 2862 
Q 3072 2584 2669 2484 
Q 3125 2378 3379 2068 
Q 3634 1759 3634 1313 
Q 3634 634 3220 271 
Q 2806 -91 2034 -91 
Q 1263 -91 848 271 
Q 434 634 434 1313 
Q 434 1759 690 2068 
Q 947 2378 1403 2484 
z
M 1172 3481 
Q 1172 3119 1398 2916 
Q 1625 2713 2034 2713 
Q 2441 2713 2670 2916 
Q 2900 3119 2900 3481 
Q 2900 3844 2670 4047 
Q 2441 4250 2034 4250 
Q 1625 4250 1398 4047 
Q 1172 3844 1172 3481 
z
" transform="scale(0.015625)"/>
       </defs>
       <use xlink:href="#DejaVuSans-32"/>
       <use xlink:href="#DejaVuSans-30" transform="translate(63.623047 0)"/>
       <use xlink:href="#DejaVuSans-32" transform="translate(127.246094 0)"/>
       <use xlink:href="#DejaVuSans-35" transform="translate(190.869141 0)"/>
       <use xlink:href="#DejaVuSans-2d" transform="translate(254.492188 0)"/>
       <use xlink:href="#DejaVuSans-30" transform="translate(290.576172 0)"/>
       <use xlink:href="#DejaVuSans-37" transform="translate(354.199219 0)"/>
       <use xlink:href="#DejaVuSans-2d" transform="translate(417.822266 0)"/>
       <use xlink:href="#DejaVuSans-31" transform="translate(453.90625 0)"/>
       <use xlink:href="#DejaVuSans-38" transform="translate(517.529297 0)"/>
      </g>
     </g>
    </g>
    <g id="xtick_7">
     <g id="text_7">
      <!-- 2025-07-19 -->
      <g style="fill: #757a7f" transform="translate(642.338482 345.649872) rotate(-45) scale(0.1 -0.1)">
       <defs>
        <path id="DejaVuSans-39" d="M 703 97 
L 703 672 
Q 941 559 1184 500 
Q 1428 441 1663 441 
Q 2288 441 2617 861 
Q 2947 1281 2994 2138 
Q 2813 1869 2534 1725 
Q 2256 1581 1919 1581 
Q 1219 1581 811 2004 
Q 403 2428 403 3163 
Q 403 3881 828 4315 
Q 1253 4750 1959 4750 
Q 2769 4750 3195 4129 
Q 3622 3509 3622 2328 
Q 3622 1225 3098 567 
Q 2575 -91 1691 -91 
Q 1453 -91 1209 -44 
Q 966 3 703 97 
z
M 1959 2075 
Q 2384 2075 2632 2365 
Q 2881 2656 2881 3163 
Q 2881 3666 2632 3958 
Q 2384 4250 1959 4250 
Q 1534 4250 1286 3958 
Q 1038 3666 1038 3163 
Q 1038 2656 1286 2365 
Q 1534 2075 1959 2075 
z
" transform="scale(0.015625)"/>
       </defs>
       <use xlink:href="#DejaVuSans-32"/>
       <use xlink:href="#DejaVuSans-30" transform="translate(63.623047 0)"/>
       <use xlink:href="#DejaVuSans-32" transform="translate(127.246094 0)"/>
       <use xlink:href="#DejaVuSans-35" transform="translate(190.869141 0)"/>
       <use xlink:href="#DejaVuSans-2d" transform="translate(254.492188 0)"/>
       <use xlink:href="#DejaVuSans-30" transform="translate(290.576172 0)"/>
       <use xlink:href="#DejaVuSans-37" transform="translate(354.199219 0)"/>
       <use xlink:href="#DejaVuSans-2d" transform="translate(417.822266 0)"/>
       <use xlink:href="#DejaVuSans-31" transform="translate(453.90625 0)"/>
       <use xlink:href="#DejaVuSans-39" transform="translate(517.529297 0)"/>
      </g>
     </g>
    </g>
   </g>
   <g id="matplotlib.axis_2">
    <g id="ytick_1">
     <g id="line2d_1">
      <path d="M 61.56 289.683013 
L 707.04 289.683013 
" clip-path="url(#p3e9d0e85a6)" style="fill: none; stroke: #cccccc; stroke-linecap: round"/>
     </g>
     <g id="text_8">
      <!-- 0% -->
      <g style="fill: #757a7f" transform="translate(36.195937 293.482232) scale(0.1 -0.1)">
       <defs>
        <path id="DejaVuSans-25" d="M 4653 2053 
Q 4381 2053 4226 1822 
Q 4072 1591 4072 1178 
Q 4072 772 4226 539 
Q 4381 306 4653 306 
Q 4919 306 5073 539 
Q 5228 772 5228 1178 
Q 5228 1588 5073 1820 
Q 4919 2053 4653 2053 
z
M 4653 2450 
Q 5147 2450 5437 2106 
Q 5728 1763 5728 1178 
Q 5728 594 5436 251 
Q 5144 -91 4653 -91 
Q 4153 -91 3862 251 
Q 3572 594 3572 1178 
Q 3572 1766 3864 2108 
Q 4156 2450 4653 2450 
z
M 1428 4353 
Q 1159 4353 1004 4120 
Q 850 3888 850 3481 
Q 850 3069 1003 2837 
Q 1156 2606 1428 2606 
Q 1700 2606 1854 2837 
Q 2009 3069 2009 3481 
Q 2009 3884 1853 4118 
Q 1697 4353 1428 4353 
z
M 4250 4750 
L 4750 4750 
L 1831 -91 
L 1331 -91 
L 4250 4750 
z
M 1428 4750 
Q 1922 4750 2215 4408 
Q 2509 4066 2509 3481 
Q 2509 2891 2217 2550 
Q 1925 2209 1428 2209 
Q 931 2209 642 2551 
Q 353 2894 353 3481 
Q 353 4063 643 4406 
Q 934 4750 1428 4750 
z
" transform="scale(0.015625)"/>
       </defs>
       <use xlink:href="#DejaVuSans-30"/>
       <use xlink:href="#DejaVuSans-25" transform="translate(63.623047 0)"/>
      </g>
     </g>
    </g>
    <g id="ytick_2">
     <g id="line2d_2">
      <path d="M 61.56 253.119992 
L 707.04 253.119992 
" clip-path="url(#p3e9d0e85a6)" style="fill: none; stroke: #cccccc; stroke-linecap: round"/>
     </g>
     <g id="text_9">
      <!-- 10% -->
      <g style="fill: #757a7f" transform="translate(29.833438 256.919211) scale(0.1 -0.1)">
       <use xlink:href="#DejaVuSans-31"/>
       <use xlink:href="#DejaVuSans-30" transform="translate(63.623047 0)"/>
       <use xlink:href="#DejaVuSans-25" transform="translate(127.246094 0)"/>
      </g>
     </g>
    </g>
    <g id="ytick_3">
     <g id="line2d_3">
      <path d="M 61.56 216.556972 
L 707.04 216.556972 
" clip-path="url(#p3e9d0e85a6)" style="fill: none; stroke: #cccccc; stroke-linecap: round"/>
     </g>
     <g id="text_10">
      <!-- 20% -->
      <g style="fill: #757a7f" transform="translate(29.833438 220.35619) scale(0.1 -0.1)">
       <use xlink:href="#DejaVuSans-32"/>
       <use xlink:href="#DejaVuSans-30" transform="translate(63.623047 0)"/>
       <use xlink:href="#DejaVuSans-25" transform="translate(127.246094 0)"/>
      </g>
     </g>
    </g>
    <g id="ytick_4">
     <g id="line2d_4">
      <path d="M 61.56 179.993951 
L 707.04 179.993951 
" clip-path="url(#p3e9d0e85a6)" style="fill: none; stroke: #cccccc; stroke-linecap: round"/>
     </g>
     <g id="text_11">
      <!-- 30% -->
      <g style="fill: #757a7f" transform="translate(29.833438 183.79317) scale(0.1 -0.1)">
       <use xlink:href="#DejaVuSans-33"/>
       <use xlink:href="#DejaVuSans-30" transform="translate(63.623047 0)"/>
       <use xlink:href="#DejaVuSans-25" transform="translate(127.246094 0)"/>
      </g>
     </g>
    </g>
    <g id="ytick_5">
     <g id="line2d_5">
      <path d="M 61.56 143.43093 
L 707.04 143.43093 
" clip-path="url(#p3e9d0e85a6)" style="fill: none; stroke: #cccccc; stroke-linecap: round"/>
     </g>
     <g id="text_12">
      <!-- 40% -->
      <g style="fill: #757a7f" transform="translate(29.833438 147.230149) scale(0.1 -0.1)">
       <use xlink:href="#DejaVuSans-34"/>
       <use xlink:href="#DejaVuSans-30" transform="translate(63.623047 0)"/>
       <use xlink:href="#DejaVuSans-25" transform="translate(127.246094 0)"/>
      </g>
     </g>
    </g>
    <g id="ytick_6">
     <g id="line2d_6">
      <path d="M 61.56 106.867909 
L 707.04 106.867909 
" clip-path="url(#p3e9d0e85a6)" style="fill: none; stroke: #cccccc; stroke-linecap: round"/>
     </g>
     <g id="text_13">
      <!-- 50% -->
      <g style="fill: #757a7f" transform="translate(29.833438 110.667128) scale(0.1 -0.1)">
       <use xlink:href="#DejaVuSans-35"/>
       <use xlink:href="#DejaVuSans-30" transform="translate(63.623047 0)"/>
       <use xlink:href="#DejaVuSans-25" transform="translate(127.246094 0)"/>
      </g>
     </g>
    </g>
    <g id="ytick_7">
     <g id="line2d_7">
      <path d="M 61.56 70.304888 
L 707.04 70.304888 
" clip-path="url(#p3e9d0e85a6)" style="fill: none; stroke: #cccccc; stroke-linecap: round"/>
     </g>
     <g id="text_14">
      <!-- 60% -->
      <g style="fill: #757a7f" transform="translate(29.833438 74.104107) scale(0.1 -0.1)">
       <use xlink:href="#DejaVuSans-36"/>
       <use xlink:href="#DejaVuSans-30" transform="translate(63.623047 0)"/>
       <use xlink:href="#DejaVuSans-25" transform="translate(127.246094 0)"/>
      </g>
     </g>
    </g>
    <g id="text_15">
     <!-- Usage (%) -->
     <g style="fill: #757a7f" transform="translate(23.337812 197.705882) rotate(-90) scale(0.12 -0.12)">
      <defs>
       <path id="DejaVuSans-55" d="M 556 4666 
L 1191 4666 
L 1191 1831 
Q 1191 1081 1462 751 
Q 1734 422 2344 422 
Q 2950 422 3222 751 
Q 3494 1081 3494 1831 
L 3494 4666 
L 4128 4666 
L 4128 1753 
Q 4128 841 3676 375 
Q 3225 -91 2344 -91 
Q 1459 -91 1007 375 
Q 556 841 556 1753 
L 556 4666 
z
" transform="scale(0.015625)"/>
       <path id="DejaVuSans-73" d="M 2834 3397 
L 2834 2853 
Q 2591 2978 2328 3040 
Q 2066 3103 1784 3103 
Q 1356 3103 1142 2972 
Q 928 2841 928 2578 
Q 928 2378 1081 2264 
Q 1234 2150 1697 2047 
L 1894 2003 
Q 2506 1872 2764 1633 
Q 3022 1394 3022 966 
Q 3022 478 2636 193 
Q 2250 -91 1575 -91 
Q 1294 -91 989 -36 
Q 684 19 347 128 
L 347 722 
Q 666 556 975 473 
Q 1284 391 1588 391 
Q 1994 391 2212 530 
Q 2431 669 2431 922 
Q 2431 1156 2273 1281 
Q 2116 1406 1581 1522 
L 1381 1569 
Q 847 1681 609 1914 
Q 372 2147 372 2553 
Q 372 3047 722 3315 
Q 1072 3584 1716 3584 
Q 2034 3584 2315 3537 
Q 2597 3491 2834 3397 
z
" transform="scale(0.015625)"/>
       <path id="DejaVuSans-61" d="M 2194 1759 
Q 1497 1759 1228 1600 
Q 959 1441 959 1056 
Q 959 750 1161 570 
Q 1363 391 1709 391 
Q 2188 391 2477 730 
Q 2766 1069 2766 1631 
L 2766 1759 
L 2194 1759 
z
M 3341 1997 
L 3341 0 
L 2766 0 
L 2766 531 
Q 2569 213 2275 61 
Q 1981 -91 1556 -91 
Q 1019 -91 701 211 
Q 384 513 384 1019 
Q 384 1609 779 1909 
Q 1175 2209 1959 2209 
L 2766 2209 
L 2766 2266 
Q 2766 2663 2505 2880 
Q 2244 3097 1772 3097 
Q 1472 3097 1187 3025 
Q 903 2953 641 2809 
L 641 3341 
Q 956 3463 1253 3523 
Q 1550 3584 1831 3584 
Q 2591 3584 2966 3190 
Q 3341 2797 3341 1997 
z
" transform="scale(0.015625)"/>
       <path id="DejaVuSans-67" d="M 2906 1791 
Q 2906 2416 2648 2759 
Q 2391 3103 1925 3103 
Q 1463 3103 1205 2759 
Q 947 2416 947 1791 
Q 947 1169 1205 825 
Q 1463 481 1925 481 
Q 2391 481 2648 825 
Q 2906 1169 2906 1791 
z
M 3481 434 
Q 3481 -459 3084 -895 
Q 2688 -1331 1869 -1331 
Q 1566 -1331 1297 -1286 
Q 1028 -1241 775 -1147 
L 775 -588 
Q 1028 -725 1275 -790 
Q 1522 -856 1778 -856 
Q 2344 -856 2625 -561 
Q 2906 -266 2906 331 
L 2906 616 
Q 2728 306 2450 153 
Q 2172 0 1784 0 
Q 1141 0 747 490 
Q 353 981 353 1791 
Q 353 2603 747 3093 
Q 1141 3584 1784 3584 
Q 2172 3584 2450 3431 
Q 2728 3278 2906 2969 
L 2906 3500 
L 3481 3500 
L 3481 434 
z
" transform="scale(0.015625)"/>
       <path id="DejaVuSans-65" d="M 3597 1894 
L 3597 1613 
L 953 1613 
Q 991 1019 1311 708 
Q 1631 397 2203 397 
Q 2534 397 2845 478 
Q 3156 559 3463 722 
L 3463 178 
Q 3153 47 2828 -22 
Q 2503 -91 2169 -91 
Q 1331 -91 842 396 
Q 353 884 353 1716 
Q 353 2575 817 3079 
Q 1281 3584 2069 3584 
Q 2775 3584 3186 3129 
Q 3597 2675 3597 1894 
z
M 3022 2063 
Q 3016 2534 2758 2815 
Q 2500 3097 2075 3097 
Q 1594 3097 1305 2825 
Q 1016 2553 972 2059 
L 3022 2063 
z
" transform="scale(0.015625)"/>
       <path id="DejaVuSans-20" transform="scale(0.015625)"/>
       <path id="DejaVuSans-28" d="M 1984 4856 
Q 1566 4138 1362 3434 
Q 1159 2731 1159 2009 
Q 1159 1288 1364 580 
Q 1569 -128 1984 -844 
L 1484 -844 
Q 1016 -109 783 600 
Q 550 1309 550 2009 
Q 550 2706 781 3412 
Q 1013 4119 1484 4856 
L 1984 4856 
z
" transform="scale(0.015625)"/>
       <path id="DejaVuSans-29" d="M 513 4856 
L 1013 4856 
Q 1481 4119 1714 3412 
Q 1947 2706 1947 2009 
Q 1947 1309 1714 600 
Q 1481 -109 1013 -844 
L 513 -844 
Q 928 -128 1133 580 
Q 1338 1288 1338 2009 
Q 1338 2731 1133 3434 
Q 928 4138 513 4856 
z
" transform="scale(0.015625)"/>
      </defs>
      <use xlink:href="#DejaVuSans-55"/>
      <use xlink:href="#DejaVuSans-73" transform="translate(73.193359 0)"/>
      <use xlink:href="#DejaVuSans-61" transform="translate(125.292969 0)"/>
      <use xlink:href="#DejaVuSans-67" transform="translate(186.572266 0)"/>
      <use xlink:href="#DejaVuSans-65" transform="translate(250.048828 0)"/>
      <use xlink:href="#DejaVuSans-20" transform="translate(311.572266 0)"/>
      <use xlink:href="#DejaVuSans-28" transform="translate(343.359375 0)"/>
      <use xlink:href="#DejaVuSans-25" transform="translate(382.373047 0)"/>
      <use xlink:href="#DejaVuSans-29" transform="translate(477.392578 0)"/>
     </g>
    </g>
   </g>
   <g id="patch_17">
    <path d="M 70.781143 289.683013 
L 144.550286 289.683013 
L 144.550286 105.087331 
L 70.781143 105.087331 
z
" clip-path="url(#p3e9d0e85a6)" style="fill: #aeccdb"/>
   </g>
   <g id="patch_18">
    <path d="M 162.992571 289.683013 
L 236.761714 289.683013 
L 236.761714 310.780515 
L 162.992571 310.780515 
z
" clip-path="url(#p3e9d0e85a6)" style="fill: #3274a1"/>
   </g>
   <g id="patch_19">
    <path d="M 255.204 289.683013 
L 328.973143 289.683013 
L 328.973143 285.413774 
L 255.204 285.413774 
z
" clip-path="url(#p3e9d0e85a6)" style="fill: #b3d495"/>
   </g>
   <g id="patch_20">
    <path d="M 347.415429 289.683013 
L 421.184571 289.683013 
L 421.184571 235.833643 
L 347.415429 235.833643 
z
" clip-path="url(#p3e9d0e85a6)" style="fill: #40923a"/>
   </g>
   <g id="patch_21">
    <path d="M 439.626857 289.683013 
L 513.396 289.683013 
L 513.396 291.921677 
L 439.626857 291.921677 
z
" clip-path="url(#p3e9d0e85a6)" style="fill: #efa6a5"/>
   </g>
   <g id="patch_22">
    <path d="M 531.838286 289.683013 
L 605.607429 289.683013 
L 605.607429 318.93343 
L 531.838286 318.93343 
z
" clip-path="url(#p3e9d0e85a6)" style="fill: #ca3335"/>
   </g>
   <g id="patch_23">
    <path d="M 624.049714 289.683013 
L 697.818857 289.683013 
L 697.818857 318.93343 
L 624.049714 318.93343 
z
" clip-path="url(#p3e9d0e85a6)" style="fill: #ebbd81"/>
   </g>
   <g id="line2d_8">
    <path clip-path="url(#p3e9d0e85a6)" style="fill: none; stroke: #424242; stroke-width: 2.25; stroke-linecap: round"/>
   </g>
   <g id="line2d_9">
    <path clip-path="url(#p3e9d0e85a6)" style="fill: none; stroke: #424242; stroke-width: 2.25; stroke-linecap: round"/>
   </g>
   <g id="line2d_10">
    <path clip-path="url(#p3e9d0e85a6)" style="fill: none; stroke: #424242; stroke-width: 2.25; stroke-linecap: round"/>
   </g>
   <g id="line2d_11">
    <path clip-path="url(#p3e9d0e85a6)" style="fill: none; stroke: #424242; stroke-width: 2.25; stroke-linecap: round"/>
   </g>
   <g id="line2d_12">
    <path clip-path="url(#p3e9d0e85a6)" style="fill: none; stroke: #424242; stroke-width: 2.25; stroke-linecap: round"/>
   </g>
   <g id="line2d_13">
    <path clip-path="url(#p3e9d0e85a6)" style="fill: none; stroke: #424242; stroke-width: 2.25; stroke-linecap: round"/>
   </g>
   <g id="line2d_14">
    <path clip-path="url(#p3e9d0e85a6)" style="fill: none; stroke: #424242; stroke-width: 2.25; stroke-linecap: round"/>
   </g>
   <g id="patch_24">
    <path d="M 107.665714 134.337748 
C 117.447617 134.337748 126.830195 131.25574 133.747045 125.770499 
C 140.663895 120.285259 144.550286 112.844633 144.550286 105.087331 
C 144.550286 97.33003 140.663895 89.889404 133.747045 84.404163 
C 126.830195 78.918923 117.447617 75.836915 107.665714 75.836915 
C 97.883812 75.836915 88.501233 78.918923 81.584384 84.404163 
C 74.667534 89.889404 70.781143 97.33003 70.781143 105.087331 
C 70.781143 112.844633 74.667534 120.285259 81.584384 125.770499 
C 88.501233 131.25574 97.883812 134.337748 107.665714 134.337748 
z
" clip-path="url(#p3e9d0e85a6)" style="fill: #aeccdb"/>
   </g>
   <g id="patch_25">
    <path d="M 199.877143 340.030932 
C 209.659046 340.030932 219.041624 336.948923 225.958473 331.463683 
C 232.875323 325.978443 236.761714 318.537816 236.761714 310.780515 
C 236.761714 303.023214 232.875323 295.582587 225.958473 290.097347 
C 219.041624 284.612107 209.659046 281.530098 199.877143 281.530098 
C 190.09524 281.530098 180.712662 284.612107 173.795812 290.097347 
C 166.878963 295.582587 162.992571 303.023214 162.992571 310.780515 
C 162.992571 318.537816 166.878963 325.978443 173.795812 331.463683 
C 180.712662 336.948923 190.09524 340.030932 199.877143 340.030932 
z
" clip-path="url(#p3e9d0e85a6)" style="fill: #3274a1"/>
   </g>
   <g id="patch_26">
    <path d="M 292.088571 314.664191 
C 301.870474 314.664191 311.253052 311.582182 318.169902 306.096942 
C 325.086752 300.611702 328.973143 293.171075 328.973143 285.413774 
C 328.973143 277.656473 325.086752 270.215846 318.169902 264.730606 
C 311.253052 259.245366 301.870474 256.163357 292.088571 256.163357 
C 282.306669 256.163357 272.924091 259.245366 266.007241 264.730606 
C 259.090391 270.215846 255.204 277.656473 255.204 285.413774 
C 255.204 293.171075 259.090391 300.611702 266.007241 306.096942 
C 272.924091 311.582182 282.306669 314.664191 292.088571 314.664191 
z
" clip-path="url(#p3e9d0e85a6)" style="fill: #b3d495"/>
   </g>
   <g id="patch_27">
    <path d="M 384.3 265.08406 
C 394.081903 265.08406 403.464481 262.002052 410.381331 256.516811 
C 417.29818 251.031571 421.184571 243.590945 421.184571 235.833643 
C 421.184571 228.076342 417.29818 220.635716 410.381331 215.150475 
C 403.464481 209.665235 394.081903 206.583227 384.3 206.583227 
C 374.518097 206.583227 365.135519 209.665235 358.218669 215.150475 
C 351.30182 220.635716 347.415429 228.076342 347.415429 235.833643 
C 347.415429 243.590945 351.30182 251.031571 358.218669 256.516811 
C 365.135519 262.002052 374.518097 265.08406 384.3 265.08406 
z
" clip-path="url(#p3e9d0e85a6)" style="fill: #40923a"/>
   </g>
   <g id="patch_28">
    <path d="M 476.511429 321.172094 
C 486.293331 321.172094 495.675909 318.090085 502.592759 312.604845 
C 509.509609 307.119605 513.396 299.678978 513.396 291.921677 
C 513.396 284.164376 509.509609 276.723749 502.592759 271.238509 
C 495.675909 265.753269 486.293331 262.67126 476.511429 262.67126 
C 466.729526 262.67126 457.346948 265.753269 450.430098 271.238509 
C 443.513248 276.723749 439.626857 284.164376 439.626857 291.921677 
C 439.626857 299.678978 443.513248 307.119605 450.430098 312.604845 
C 457.346948 318.090085 466.729526 321.172094 476.511429 321.172094 
z
" clip-path="url(#p3e9d0e85a6)" style="fill: #efa6a5"/>
   </g>
   <g id="patch_29">
    <path d="M 568.722857 348.183846 
C 578.50476 348.183846 587.887338 345.101838 594.804188 339.616598 
C 601.721037 334.131357 605.607429 326.690731 605.607429 318.93343 
C 605.607429 311.176128 601.721037 303.735502 594.804188 298.250262 
C 587.887338 292.765021 578.50476 289.683013 568.722857 289.683013 
C 558.940954 289.683013 549.558376 292.765021 542.641527 298.250262 
C 535.724677 303.735502 531.838286 311.176128 531.838286 318.93343 
C 531.838286 326.690731 535.724677 334.131357 542.641527 339.616598 
C 549.558376 345.101838 558.940954 348.183846 568.722857 348.183846 
z
" clip-path="url(#p3e9d0e85a6)" style="fill: #ca3335"/>
   </g>
   <g id="patch_30">
    <path d="M 660.934286 348.183846 
C 670.716188 348.183846 680.098767 345.101838 687.015616 339.616598 
C 693.932466 334.131357 697.818857 326.690731 697.818857 318.93343 
C 697.818857 311.176128 693.932466 303.735502 687.015616 298.250262 
C 680.098767 292.765021 670.716188 289.683013 660.934286 289.683013 
C 651.152383 289.683013 641.769805 292.765021 634.852955 298.250262 
C 627.936105 303.735502 624.049714 311.176128 624.049714 318.93343 
C 624.049714 326.690731 627.936105 334.131357 634.852955 339.616598 
C 641.769805 345.101838 651.152383 348.183846 660.934286 348.183846 
z
" clip-path="url(#p3e9d0e85a6)" style="fill: #ebbd81"/>
   </g>
   <g id="text_16">
    <!-- Weekly Usage Summary -->
    <g style="fill: #757a7f" transform="translate(289.16125 23.76) scale(0.14 -0.14)">
     <defs>
      <path id="DejaVuSans-Bold-57" d="M 191 4666 
L 1344 4666 
L 2150 1275 
L 2950 4666 
L 4109 4666 
L 4909 1275 
L 5716 4666 
L 6859 4666 
L 5759 0 
L 4372 0 
L 3525 3547 
L 2688 0 
L 1300 0 
L 191 4666 
z
" transform="scale(0.015625)"/>
      <path id="DejaVuSans-Bold-65" d="M 4031 1759 
L 4031 1441 
L 1416 1441 
Q 1456 1047 1700 850 
Q 1944 653 2381 653 
Q 2734 653 3104 758 
Q 3475 863 3866 1075 
L 3866 213 
Q 3469 63 3072 -14 
Q 2675 -91 2278 -91 
Q 1328 -91 801 392 
Q 275 875 275 1747 
Q 275 2603 792 3093 
Q 1309 3584 2216 3584 
Q 3041 3584 3536 3087 
Q 4031 2591 4031 1759 
z
M 2881 2131 
Q 2881 2450 2695 2645 
Q 2509 2841 2209 2841 
Q 1884 2841 1681 2658 
Q 1478 2475 1428 2131 
L 2881 2131 
z
" transform="scale(0.015625)"/>
      <path id="DejaVuSans-Bold-6b" d="M 538 4863 
L 1656 4863 
L 1656 2216 
L 2944 3500 
L 4244 3500 
L 2534 1894 
L 4378 0 
L 3022 0 
L 1656 1459 
L 1656 0 
L 538 0 
L 538 4863 
z
" transform="scale(0.015625)"/>
      <path id="DejaVuSans-Bold-6c" d="M 538 4863 
L 1656 4863 
L 1656 0 
L 538 0 
L 538 4863 
z
" transform="scale(0.015625)"/>
      <path id="DejaVuSans-Bold-79" d="M 78 3500 
L 1197 3500 
L 2138 1125 
L 2938 3500 
L 4056 3500 
L 2584 -331 
Q 2363 -916 2067 -1148 
Q 1772 -1381 1288 -1381 
L 641 -1381 
L 641 -647 
L 991 -647 
Q 1275 -647 1404 -556 
Q 1534 -466 1606 -231 
L 1638 -134 
L 78 3500 
z
" transform="scale(0.015625)"/>
      <path id="DejaVuSans-Bold-20" transform="scale(0.015625)"/>
      <path id="DejaVuSans-Bold-55" d="M 588 4666 
L 1791 4666 
L 1791 1869 
Q 1791 1291 1980 1042 
Q 2169 794 2597 794 
Q 3028 794 3217 1042 
Q 3406 1291 3406 1869 
L 3406 4666 
L 4609 4666 
L 4609 1869 
Q 4609 878 4112 393 
Q 3616 -91 2597 -91 
Q 1581 -91 1084 393 
Q 588 878 588 1869 
L 588 4666 
z
" transform="scale(0.015625)"/>
      <path id="DejaVuSans-Bold-73" d="M 3272 3391 
L 3272 2541 
Q 2913 2691 2578 2766 
Q 2244 2841 1947 2841 
Q 1628 2841 1473 2761 
Q 1319 2681 1319 2516 
Q 1319 2381 1436 2309 
Q 1553 2238 1856 2203 
L 2053 2175 
Q 2913 2066 3209 1816 
Q 3506 1566 3506 1031 
Q 3506 472 3093 190 
Q 2681 -91 1863 -91 
Q 1516 -91 1145 -36 
Q 775 19 384 128 
L 384 978 
Q 719 816 1070 734 
Q 1422 653 1784 653 
Q 2113 653 2278 743 
Q 2444 834 2444 1013 
Q 2444 1163 2330 1236 
Q 2216 1309 1875 1350 
L 1678 1375 
Q 931 1469 631 1722 
Q 331 1975 331 2491 
Q 331 3047 712 3315 
Q 1094 3584 1881 3584 
Q 2191 3584 2531 3537 
Q 2872 3491 3272 3391 
z
" transform="scale(0.015625)"/>
      <path id="DejaVuSans-Bold-61" d="M 2106 1575 
Q 1756 1575 1579 1456 
Q 1403 1338 1403 1106 
Q 1403 894 1545 773 
Q 1688 653 1941 653 
Q 2256 653 2472 879 
Q 2688 1106 2688 1447 
L 2688 1575 
L 2106 1575 
z
M 3816 1997 
L 3816 0 
L 2688 0 
L 2688 519 
Q 2463 200 2181 54 
Q 1900 -91 1497 -91 
Q 953 -91 614 226 
Q 275 544 275 1050 
Q 275 1666 698 1953 
Q 1122 2241 2028 2241 
L 2688 2241 
L 2688 2328 
Q 2688 2594 2478 2717 
Q 2269 2841 1825 2841 
Q 1466 2841 1156 2769 
Q 847 2697 581 2553 
L 581 3406 
Q 941 3494 1303 3539 
Q 1666 3584 2028 3584 
Q 2975 3584 3395 3211 
Q 3816 2838 3816 1997 
z
" transform="scale(0.015625)"/>
      <path id="DejaVuSans-Bold-67" d="M 2919 594 
Q 2688 288 2409 144 
Q 2131 0 1766 0 
Q 1125 0 706 504 
Q 288 1009 288 1791 
Q 288 2575 706 3076 
Q 1125 3578 1766 3578 
Q 2131 3578 2409 3434 
Q 2688 3291 2919 2981 
L 2919 3500 
L 4044 3500 
L 4044 353 
Q 4044 -491 3511 -936 
Q 2978 -1381 1966 -1381 
Q 1638 -1381 1331 -1331 
Q 1025 -1281 716 -1178 
L 716 -306 
Q 1009 -475 1290 -558 
Q 1572 -641 1856 -641 
Q 2406 -641 2662 -400 
Q 2919 -159 2919 353 
L 2919 594 
z
M 2181 2772 
Q 1834 2772 1640 2515 
Q 1447 2259 1447 1791 
Q 1447 1309 1634 1061 
Q 1822 813 2181 813 
Q 2531 813 2725 1069 
Q 2919 1325 2919 1791 
Q 2919 2259 2725 2515 
Q 2531 2772 2181 2772 
z
" transform="scale(0.015625)"/>
      <path id="DejaVuSans-Bold-53" d="M 3834 4519 
L 3834 3531 
Q 3450 3703 3084 3790 
Q 2719 3878 2394 3878 
Q 1963 3878 1756 3759 
Q 1550 3641 1550 3391 
Q 1550 3203 1689 3098 
Q 1828 2994 2194 2919 
L 2706 2816 
Q 3484 2659 3812 2340 
Q 4141 2022 4141 1434 
Q 4141 663 3683 286 
Q 3225 -91 2284 -91 
Q 1841 -91 1394 -6 
Q 947 78 500 244 
L 500 1259 
Q 947 1022 1364 901 
Q 1781 781 2169 781 
Q 2563 781 2772 912 
Q 2981 1044 2981 1288 
Q 2981 1506 2839 1625 
Q 2697 1744 2272 1838 
L 1806 1941 
Q 1106 2091 782 2419 
Q 459 2747 459 3303 
Q 459 4000 909 4375 
Q 1359 4750 2203 4750 
Q 2588 4750 2994 4692 
Q 3400 4634 3834 4519 
z
" transform="scale(0.015625)"/>
      <path id="DejaVuSans-Bold-75" d="M 500 1363 
L 500 3500 
L 1625 3500 
L 1625 3150 
Q 1625 2866 1622 2436 
Q 1619 2006 1619 1863 
Q 1619 1441 1641 1255 
Q 1663 1069 1716 984 
Q 1784 875 1895 815 
Q 2006 756 2150 756 
Q 2500 756 2700 1025 
Q 2900 1294 2900 1772 
L 2900 3500 
L 4019 3500 
L 4019 0 
L 2900 0 
L 2900 506 
Q 2647 200 2364 54 
Q 2081 -91 1741 -91 
Q 1134 -91 817 281 
Q 500 653 500 1363 
z
" transform="scale(0.015625)"/>
      <path id="DejaVuSans-Bold-6d" d="M 3781 2919 
Q 3994 3244 4286 3414 
Q 4578 3584 4928 3584 
Q 5531 3584 5847 3212 
Q 6163 2841 6163 2131 
L 6163 0 
L 5038 0 
L 5038 1825 
Q 5041 1866 5042 1909 
Q 5044 1953 5044 2034 
Q 5044 2406 4934 2573 
Q 4825 2741 4581 2741 
Q 4263 2741 4089 2478 
Q 3916 2216 3909 1719 
L 3909 0 
L 2784 0 
L 2784 1825 
Q 2784 2406 2684 2573 
Q 2584 2741 2328 2741 
Q 2006 2741 1831 2477 
Q 1656 2213 1656 1722 
L 1656 0 
L 531 0 
L 531 3500 
L 1656 3500 
L 1656 2988 
Q 1863 3284 2130 3434 
Q 2397 3584 2719 3584 
Q 3081 3584 3359 3409 
Q 3638 3234 3781 2919 
z
" transform="scale(0.015625)"/>
      <path id="DejaVuSans-Bold-72" d="M 3138 2547 
Q 2991 2616 2845 2648 
Q 2700 2681 2553 2681 
Q 2122 2681 1889 2404 
Q 1656 2128 1656 1613 
L 1656 0 
L 538 0 
L 538 3500 
L 1656 3500 
L 1656 2925 
Q 1872 3269 2151 3426 
Q 2431 3584 2822 3584 
Q 2878 3584 2943 3579 
Q 3009 3575 3134 3559 
L 3138 2547 
z
" transform="scale(0.015625)"/>
     </defs>
     <use xlink:href="#DejaVuSans-Bold-57"/>
     <use xlink:href="#DejaVuSans-Bold-65" transform="translate(106.677734 0)"/>
     <use xlink:href="#DejaVuSans-Bold-65" transform="translate(174.5 0)"/>
     <use xlink:href="#DejaVuSans-Bold-6b" transform="translate(242.322266 0)"/>
     <use xlink:href="#DejaVuSans-Bold-6c" transform="translate(308.826172 0)"/>
     <use xlink:href="#DejaVuSans-Bold-79" transform="translate(343.103516 0)"/>
     <use xlink:href="#DejaVuSans-Bold-20" transform="translate(408.289062 0)"/>
     <use xlink:href="#DejaVuSans-Bold-55" transform="translate(443.103516 0)"/>
     <use xlink:href="#DejaVuSans-Bold-73" transform="translate(524.304688 0)"/>
     <use xlink:href="#DejaVuSans-Bold-61" transform="translate(583.826172 0)"/>
     <use xlink:href="#DejaVuSans-Bold-67" transform="translate(651.306641 0)"/>
     <use xlink:href="#DejaVuSans-Bold-65" transform="translate(722.888672 0)"/>
     <use xlink:href="#DejaVuSans-Bold-20" transform="translate(790.710938 0)"/>
     <use xlink:href="#DejaVuSans-Bold-53" transform="translate(825.525391 0)"/>
     <use xlink:href="#DejaVuSans-Bold-75" transform="translate(897.546875 0)"/>
     <use xlink:href="#DejaVuSans-Bold-6d" transform="translate(968.738281 0)"/>
     <use xlink:href="#DejaVuSans-Bold-6d" transform="translate(1072.9375 0)"/>
     <use xlink:href="#DejaVuSans-Bold-61" transform="translate(1177.136719 0)"/>
     <use xlink:href="#DejaVuSans-Bold-72" transform="translate(1244.617188 0)"/>
     <use xlink:href="#DejaVuSans-Bold-79" transform="translate(1293.933594 0)"/>
    </g>
   </g>
  </g>
 </g>
 <defs>
  <clipPath id="p3e9d0e85a6">
   <rect x="61.56" y="43.76" width="645.48" height="245.923013"/>
  </clipPath>
 </defs>
</svg>
