<?xml version="1.0" encoding="utf-8" standalone="no"?>
<!DOCTYPE svg PUBLIC "-//W3C//DTD SVG 1.1//EN"
  "http://www.w3.org/Graphics/SVG/1.1/DTD/svg11.dtd">
<svg xmlns:xlink="http://www.w3.org/1999/xlink" width="720pt" height="360pt" viewBox="0 0 720 360" xmlns="http://www.w3.org/2000/svg" version="1.1">
 <metadata>
  <rdf:RDF xmlns:dc="http://purl.org/dc/elements/1.1/" xmlns:cc="http://creativecommons.org/ns#" xmlns:rdf="http://www.w3.org/1999/02/22-rdf-syntax-ns#">
   <cc:Work>
    <dc:type rdf:resource="http://purl.org/dc/dcmitype/StillImage"/>
    <dc:date>2025-07-17T17:28:13.661117</dc:date>
    <dc:format>image/svg+xml</dc:format>
    <dc:creator>
     <cc:Agent>
      <dc:title>Matplotlib v3.10.3, https://matplotlib.org/</dc:title>
     </cc:Agent>
    </dc:creator>
   </cc:Work>
  </rdf:RDF>
 </metadata>
 <defs>
  <style type="text/css">*{stroke-linejoin: round; stroke-linecap: butt}</style>
 </defs>
 <g id="figure_1">
  <g id="patch_1">
   <path d="M 0 360 
L 720 360 
L 720 0 
L 0 0 
L 0 360 
z
" style="fill: none"/>
  </g>
  <g id="axes_1">
   <g id="patch_2">
    <path d="M 61.56 289.683013 
L 707.04 289.683013 
L 707.04 43.76 
L 61.56 43.76 
L 61.56 289.683013 
z
" style="fill: none"/>
   </g>
   <g id="patch_3">
    <path d="M 75.391714 290.658321 
L 149.160857 290.658321 
L 149.160857 329.670619 
L 75.391714 329.670619 
z
" clip-path="url(#pf505cd48c4)" style="fill: #808080; opacity: 0.3; stroke: #808080; stroke-linejoin: miter"/>
   </g>
   <g id="patch_4">
    <path d="M 112.276286 368.682917 
C 122.058188 368.682917 131.440767 364.572335 138.357616 357.256479 
C 145.274466 349.940623 149.160857 340.016801 149.160857 329.670619 
C 149.160857 319.324436 145.274466 309.400614 138.357616 302.084758 
C 131.440767 294.768902 122.058188 290.658321 112.276286 290.658321 
C 102.494383 290.658321 93.111805 294.768902 86.194955 302.084758 
C 79.278105 309.400614 75.391714 319.324436 75.391714 329.670619 
C 75.391714 340.016801 79.278105 349.940623 86.194955 357.256479 
C 93.111805 364.572335 102.494383 368.682917 112.276286 368.682917 
z
" clip-path="url(#pf505cd48c4)" style="fill: #808080; opacity: 0.3; stroke: #808080; stroke-linejoin: miter"/>
   </g>
   <g id="patch_5">
    <path d="M 167.603143 290.658321 
L 241.372286 290.658321 
L 241.372286 329.670619 
L 167.603143 329.670619 
z
" clip-path="url(#pf505cd48c4)" style="fill: #808080; opacity: 0.3; stroke: #808080; stroke-linejoin: miter"/>
   </g>
   <g id="patch_6">
    <path d="M 204.487714 368.682917 
C 214.269617 368.682917 223.652195 364.572335 230.569045 357.256479 
C 237.485895 349.940623 241.372286 340.016801 241.372286 329.670619 
C 241.372286 319.324436 237.485895 309.400614 230.569045 302.084758 
C 223.652195 294.768902 214.269617 290.658321 204.487714 290.658321 
C 194.705812 290.658321 185.323233 294.768902 178.406384 302.084758 
C 171.489534 309.400614 167.603143 319.324436 167.603143 329.670619 
C 167.603143 340.016801 171.489534 349.940623 178.406384 357.256479 
C 185.323233 364.572335 194.705812 368.682917 204.487714 368.682917 
z
" clip-path="url(#pf505cd48c4)" style="fill: #808080; opacity: 0.3; stroke: #808080; stroke-linejoin: miter"/>
   </g>
   <g id="patch_7">
    <path d="M 259.814571 290.658321 
L 333.583714 290.658321 
L 333.583714 180.635347 
L 259.814571 180.635347 
z
" clip-path="url(#pf505cd48c4)" style="fill: #808080; opacity: 0.3; stroke: #808080; stroke-linejoin: miter"/>
   </g>
   <g id="patch_8">
    <path d="M 296.699143 219.647645 
C 306.481046 219.647645 315.863624 215.537063 322.780473 208.221207 
C 329.697323 200.905352 333.583714 190.981529 333.583714 180.635347 
C 333.583714 170.289164 329.697323 160.365342 322.780473 153.049486 
C 315.863624 145.73363 306.481046 141.623049 296.699143 141.623049 
C 286.91724 141.623049 277.534662 145.73363 270.617812 153.049486 
C 263.700963 160.365342 259.814571 170.289164 259.814571 180.635347 
C 259.814571 190.981529 263.700963 200.905352 270.617812 208.221207 
C 277.534662 215.537063 286.91724 219.647645 296.699143 219.647645 
z
" clip-path="url(#pf505cd48c4)" style="fill: #808080; opacity: 0.3; stroke: #808080; stroke-linejoin: miter"/>
   </g>
   <g id="patch_9">
    <path d="M 352.026 290.658321 
L 425.795143 290.658321 
L 425.795143 115.82452 
L 352.026 115.82452 
z
" clip-path="url(#pf505cd48c4)" style="fill: #808080; opacity: 0.3; stroke: #808080; stroke-linejoin: miter"/>
   </g>
   <g id="patch_10">
    <path d="M 388.910571 154.836818 
C 398.692474 154.836818 408.075052 150.726237 414.991902 143.410381 
C 421.908752 136.094525 425.795143 126.170703 425.795143 115.82452 
C 425.795143 105.478338 421.908752 95.554516 414.991902 88.23866 
C 408.075052 80.922804 398.692474 76.812222 388.910571 76.812222 
C 379.128669 76.812222 369.746091 80.922804 362.829241 88.23866 
C 355.912391 95.554516 352.026 105.478338 352.026 115.82452 
C 352.026 126.170703 355.912391 136.094525 362.829241 143.410381 
C 369.746091 150.726237 379.128669 154.836818 388.910571 154.836818 
z
" clip-path="url(#pf505cd48c4)" style="fill: #808080; opacity: 0.3; stroke: #808080; stroke-linejoin: miter"/>
   </g>
   <g id="patch_11">
    <path d="M 444.237429 290.658321 
L 518.006571 290.658321 
L 518.006571 321.517704 
L 444.237429 321.517704 
z
" clip-path="url(#pf505cd48c4)" style="fill: #808080; opacity: 0.3; stroke: #808080; stroke-linejoin: miter"/>
   </g>
   <g id="patch_12">
    <path d="M 481.122 360.530002 
C 490.903903 360.530002 500.286481 356.41942 507.203331 349.103565 
C 514.12018 341.787709 518.006571 331.863886 518.006571 321.517704 
C 518.006571 311.171522 514.12018 301.247699 507.203331 293.931843 
C 500.286481 286.615988 490.903903 282.505406 481.122 282.505406 
C 471.340097 282.505406 461.957519 286.615988 455.040669 293.931843 
C 448.12382 301.247699 444.237429 311.171522 444.237429 321.517704 
C 444.237429 331.863886 448.12382 341.787709 455.040669 349.103565 
C 461.957519 356.41942 471.340097 360.530002 481.122 360.530002 
z
" clip-path="url(#pf505cd48c4)" style="fill: #808080; opacity: 0.3; stroke: #808080; stroke-linejoin: miter"/>
   </g>
   <g id="patch_13">
    <path d="M 536.448857 290.658321 
L 610.218 290.658321 
L 610.218 296.150963 
L 536.448857 296.150963 
z
" clip-path="url(#pf505cd48c4)" style="fill: #808080; opacity: 0.3; stroke: #808080; stroke-linejoin: miter"/>
   </g>
   <g id="patch_14">
    <path d="M 573.333429 335.163261 
C 583.115331 335.163261 592.497909 331.052679 599.414759 323.736824 
C 606.331609 316.420968 610.218 306.497145 610.218 296.150963 
C 610.218 285.804781 606.331609 275.880958 599.414759 268.565102 
C 592.497909 261.249247 583.115331 257.138665 573.333429 257.138665 
C 563.551526 257.138665 554.168948 261.249247 547.252098 268.565102 
C 540.335248 275.880958 536.448857 285.804781 536.448857 296.150963 
C 536.448857 306.497145 540.335248 316.420968 547.252098 323.736824 
C 554.168948 331.052679 563.551526 335.163261 573.333429 335.163261 
z
" clip-path="url(#pf505cd48c4)" style="fill: #808080; opacity: 0.3; stroke: #808080; stroke-linejoin: miter"/>
   </g>
   <g id="patch_15">
    <path d="M 628.660286 290.658321 
L 702.429429 290.658321 
L 702.429429 246.570832 
L 628.660286 246.570832 
z
" clip-path="url(#pf505cd48c4)" style="fill: #808080; opacity: 0.3; stroke: #808080; stroke-linejoin: miter"/>
   </g>
   <g id="patch_16">
    <path d="M 665.544857 285.583131 
C 675.32676 285.583131 684.709338 281.472549 691.626188 274.156693 
C 698.543037 266.840837 702.429429 256.917015 702.429429 246.570832 
C 702.429429 236.22465 698.543037 226.300828 691.626188 218.984972 
C 684.709338 211.669116 675.32676 207.558534 665.544857 207.558534 
C 655.762954 207.558534 646.380376 211.669116 639.463527 218.984972 
C 632.546677 226.300828 628.660286 236.22465 628.660286 246.570832 
C 628.660286 256.917015 632.546677 266.840837 639.463527 274.156693 
C 646.380376 281.472549 655.762954 285.583131 665.544857 285.583131 
z
" clip-path="url(#pf505cd48c4)" style="fill: #808080; opacity: 0.3; stroke: #808080; stroke-linejoin: miter"/>
   </g>
   <g id="matplotlib.axis_1">
    <g id="xtick_1">
     <g id="text_1">
      <!-- 2025-07-10 -->
      <g style="fill: #757a7f" transform="translate(89.069911 345.649872) rotate(-45) scale(0.1 -0.1)">
       <defs>
        <path id="DejaVuSans-32" d="M 1228 531 
L 3431 531 
L 3431 0 
L 469 0 
L 469 531 
Q 828 903 1448 1529 
Q 2069 2156 2228 2338 
Q 2531 2678 2651 2914 
Q 2772 3150 2772 3378 
Q 2772 3750 2511 3984 
Q 2250 4219 1831 4219 
Q 1534 4219 1204 4116 
Q 875 4013 500 3803 
L 500 4441 
Q 881 4594 1212 4672 
Q 1544 4750 1819 4750 
Q 2544 4750 2975 4387 
Q 3406 4025 3406 3419 
Q 3406 3131 3298 2873 
Q 3191 2616 2906 2266 
Q 2828 2175 2409 1742 
Q 1991 1309 1228 531 
z
" transform="scale(0.015625)"/>
        <path id="DejaVuSans-30" d="M 2034 4250 
Q 1547 4250 1301 3770 
Q 1056 3291 1056 2328 
Q 1056 1369 1301 889 
Q 1547 409 2034 409 
Q 2525 409 2770 889 
Q 3016 1369 3016 2328 
Q 3016 3291 2770 3770 
Q 2525 4250 2034 4250 
z
M 2034 4750 
Q 2819 4750 3233 4129 
Q 3647 3509 3647 2328 
Q 3647 1150 3233 529 
Q 2819 -91 2034 -91 
Q 1250 -91 836 529 
Q 422 1150 422 2328 
Q 422 3509 836 4129 
Q 1250 4750 2034 4750 
z
" transform="scale(0.015625)"/>
        <path id="DejaVuSans-35" d="M 691 4666 
L 3169 4666 
L 3169 4134 
L 1269 4134 
L 1269 2991 
Q 1406 3038 1543 3061 
Q 1681 3084 1819 3084 
Q 2600 3084 3056 2656 
Q 3513 2228 3513 1497 
Q 3513 744 3044 326 
Q 2575 -91 1722 -91 
Q 1428 -91 1123 -41 
Q 819 9 494 109 
L 494 744 
Q 775 591 1075 516 
Q 1375 441 1709 441 
Q 2250 441 2565 725 
Q 2881 1009 2881 1497 
Q 2881 1984 2565 2268 
Q 2250 2553 1709 2553 
Q 1456 2553 1204 2497 
Q 953 2441 691 2322 
L 691 4666 
z
" transform="scale(0.015625)"/>
        <path id="DejaVuSans-2d" d="M 313 2009 
L 1997 2009 
L 1997 1497 
L 313 1497 
L 313 2009 
z
" transform="scale(0.015625)"/>
        <path id="DejaVuSans-37" d="M 525 4666 
L 3525 4666 
L 3525 4397 
L 1831 0 
L 1172 0 
L 2766 4134 
L 525 4134 
L 525 4666 
z
" transform="scale(0.015625)"/>
        <path id="DejaVuSans-31" d="M 794 531 
L 1825 531 
L 1825 4091 
L 703 3866 
L 703 4441 
L 1819 4666 
L 2450 4666 
L 2450 531 
L 3481 531 
L 3481 0 
L 794 0 
L 794 531 
z
" transform="scale(0.015625)"/>
       </defs>
       <use xlink:href="#DejaVuSans-32"/>
       <use xlink:href="#DejaVuSans-30" transform="translate(63.623047 0)"/>
       <use xlink:href="#DejaVuSans-32" transform="translate(127.246094 0)"/>
       <use xlink:href="#DejaVuSans-35" transform="translate(190.869141 0)"/>
       <use xlink:href="#DejaVuSans-2d" transform="translate(254.492188 0)"/>
       <use xlink:href="#DejaVuSans-30" transform="translate(290.576172 0)"/>
       <use xlink:href="#DejaVuSans-37" transform="translate(354.199219 0)"/>
       <use xlink:href="#DejaVuSans-2d" transform="translate(417.822266 0)"/>
       <use xlink:href="#DejaVuSans-31" transform="translate(453.90625 0)"/>
       <use xlink:href="#DejaVuSans-30" transform="translate(517.529297 0)"/>
      </g>
     </g>
    </g>
    <g id="xtick_2">
     <g id="text_2">
      <!-- 2025-07-11 -->
      <g style="fill: #757a7f" transform="translate(181.281339 345.649872) rotate(-45) scale(0.1 -0.1)">
       <use xlink:href="#DejaVuSans-32"/>
       <use xlink:href="#DejaVuSans-30" transform="translate(63.623047 0)"/>
       <use xlink:href="#DejaVuSans-32" transform="translate(127.246094 0)"/>
       <use xlink:href="#DejaVuSans-35" transform="translate(190.869141 0)"/>
       <use xlink:href="#DejaVuSans-2d" transform="translate(254.492188 0)"/>
       <use xlink:href="#DejaVuSans-30" transform="translate(290.576172 0)"/>
       <use xlink:href="#DejaVuSans-37" transform="translate(354.199219 0)"/>
       <use xlink:href="#DejaVuSans-2d" transform="translate(417.822266 0)"/>
       <use xlink:href="#DejaVuSans-31" transform="translate(453.90625 0)"/>
       <use xlink:href="#DejaVuSans-31" transform="translate(517.529297 0)"/>
      </g>
     </g>
    </g>
    <g id="xtick_3">
     <g id="text_3">
      <!-- 2025-07-12 -->
      <g style="fill: #757a7f" transform="translate(273.492768 345.649872) rotate(-45) scale(0.1 -0.1)">
       <use xlink:href="#DejaVuSans-32"/>
       <use xlink:href="#DejaVuSans-30" transform="translate(63.623047 0)"/>
       <use xlink:href="#DejaVuSans-32" transform="translate(127.246094 0)"/>
       <use xlink:href="#DejaVuSans-35" transform="translate(190.869141 0)"/>
       <use xlink:href="#DejaVuSans-2d" transform="translate(254.492188 0)"/>
       <use xlink:href="#DejaVuSans-30" transform="translate(290.576172 0)"/>
       <use xlink:href="#DejaVuSans-37" transform="translate(354.199219 0)"/>
       <use xlink:href="#DejaVuSans-2d" transform="translate(417.822266 0)"/>
       <use xlink:href="#DejaVuSans-31" transform="translate(453.90625 0)"/>
       <use xlink:href="#DejaVuSans-32" transform="translate(517.529297 0)"/>
      </g>
     </g>
    </g>
    <g id="xtick_4">
     <g id="text_4">
      <!-- 2025-07-13 -->
      <g style="fill: #757a7f" transform="translate(365.704197 345.649872) rotate(-45) scale(0.1 -0.1)">
       <defs>
        <path id="DejaVuSans-33" d="M 2597 2516 
Q 3050 2419 3304 2112 
Q 3559 1806 3559 1356 
Q 3559 666 3084 287 
Q 2609 -91 1734 -91 
Q 1441 -91 1130 -33 
Q 819 25 488 141 
L 488 750 
Q 750 597 1062 519 
Q 1375 441 1716 441 
Q 2309 441 2620 675 
Q 2931 909 2931 1356 
Q 2931 1769 2642 2001 
Q 2353 2234 1838 2234 
L 1294 2234 
L 1294 2753 
L 1863 2753 
Q 2328 2753 2575 2939 
Q 2822 3125 2822 3475 
Q 2822 3834 2567 4026 
Q 2313 4219 1838 4219 
Q 1578 4219 1281 4162 
Q 984 4106 628 3988 
L 628 4550 
Q 988 4650 1302 4700 
Q 1616 4750 1894 4750 
Q 2613 4750 3031 4423 
Q 3450 4097 3450 3541 
Q 3450 3153 3228 2886 
Q 3006 2619 2597 2516 
z
" transform="scale(0.015625)"/>
       </defs>
       <use xlink:href="#DejaVuSans-32"/>
       <use xlink:href="#DejaVuSans-30" transform="translate(63.623047 0)"/>
       <use xlink:href="#DejaVuSans-32" transform="translate(127.246094 0)"/>
       <use xlink:href="#DejaVuSans-35" transform="translate(190.869141 0)"/>
       <use xlink:href="#DejaVuSans-2d" transform="translate(254.492188 0)"/>
       <use xlink:href="#DejaVuSans-30" transform="translate(290.576172 0)"/>
       <use xlink:href="#DejaVuSans-37" transform="translate(354.199219 0)"/>
       <use xlink:href="#DejaVuSans-2d" transform="translate(417.822266 0)"/>
       <use xlink:href="#DejaVuSans-31" transform="translate(453.90625 0)"/>
       <use xlink:href="#DejaVuSans-33" transform="translate(517.529297 0)"/>
      </g>
     </g>
    </g>
    <g id="xtick_5">
     <g id="text_5">
      <!-- 2025-07-14 -->
      <g style="fill: #757a7f" transform="translate(457.915625 345.649872) rotate(-45) scale(0.1 -0.1)">
       <defs>
        <path id="DejaVuSans-34" d="M 2419 4116 
L 825 1625 
L 2419 1625 
L 2419 4116 
z
M 2253 4666 
L 3047 4666 
L 3047 1625 
L 3713 1625 
L 3713 1100 
L 3047 1100 
L 3047 0 
L 2419 0 
L 2419 1100 
L 313 1100 
L 313 1709 
L 2253 4666 
z
" transform="scale(0.015625)"/>
       </defs>
       <use xlink:href="#DejaVuSans-32"/>
       <use xlink:href="#DejaVuSans-30" transform="translate(63.623047 0)"/>
       <use xlink:href="#DejaVuSans-32" transform="translate(127.246094 0)"/>
       <use xlink:href="#DejaVuSans-35" transform="translate(190.869141 0)"/>
       <use xlink:href="#DejaVuSans-2d" transform="translate(254.492188 0)"/>
       <use xlink:href="#DejaVuSans-30" transform="translate(290.576172 0)"/>
       <use xlink:href="#DejaVuSans-37" transform="translate(354.199219 0)"/>
       <use xlink:href="#DejaVuSans-2d" transform="translate(417.822266 0)"/>
       <use xlink:href="#DejaVuSans-31" transform="translate(453.90625 0)"/>
       <use xlink:href="#DejaVuSans-34" transform="translate(517.529297 0)"/>
      </g>
     </g>
    </g>
    <g id="xtick_6">
     <g id="text_6">
      <!-- 2025-07-15 -->
      <g style="fill: #757a7f" transform="translate(550.127054 345.649872) rotate(-45) scale(0.1 -0.1)">
       <use xlink:href="#DejaVuSans-32"/>
       <use xlink:href="#DejaVuSans-30" transform="translate(63.623047 0)"/>
       <use xlink:href="#DejaVuSans-32" transform="translate(127.246094 0)"/>
       <use xlink:href="#DejaVuSans-35" transform="translate(190.869141 0)"/>
       <use xlink:href="#DejaVuSans-2d" transform="translate(254.492188 0)"/>
       <use xlink:href="#DejaVuSans-30" transform="translate(290.576172 0)"/>
       <use xlink:href="#DejaVuSans-37" transform="translate(354.199219 0)"/>
       <use xlink:href="#DejaVuSans-2d" transform="translate(417.822266 0)"/>
       <use xlink:href="#DejaVuSans-31" transform="translate(453.90625 0)"/>
       <use xlink:href="#DejaVuSans-35" transform="translate(517.529297 0)"/>
      </g>
     </g>
    </g>
    <g id="xtick_7">
     <g id="text_7">
      <!-- 2025-07-16 -->
      <g style="fill: #757a7f" transform="translate(642.338482 345.649872) rotate(-45) scale(0.1 -0.1)">
       <defs>
        <path id="DejaVuSans-36" d="M 2113 2584 
Q 1688 2584 1439 2293 
Q 1191 2003 1191 1497 
Q 1191 994 1439 701 
Q 1688 409 2113 409 
Q 2538 409 2786 701 
Q 3034 994 3034 1497 
Q 3034 2003 2786 2293 
Q 2538 2584 2113 2584 
z
M 3366 4563 
L 3366 3988 
Q 3128 4100 2886 4159 
Q 2644 4219 2406 4219 
Q 1781 4219 1451 3797 
Q 1122 3375 1075 2522 
Q 1259 2794 1537 2939 
Q 1816 3084 2150 3084 
Q 2853 3084 3261 2657 
Q 3669 2231 3669 1497 
Q 3669 778 3244 343 
Q 2819 -91 2113 -91 
Q 1303 -91 875 529 
Q 447 1150 447 2328 
Q 447 3434 972 4092 
Q 1497 4750 2381 4750 
Q 2619 4750 2861 4703 
Q 3103 4656 3366 4563 
z
" transform="scale(0.015625)"/>
       </defs>
       <use xlink:href="#DejaVuSans-32"/>
       <use xlink:href="#DejaVuSans-30" transform="translate(63.623047 0)"/>
       <use xlink:href="#DejaVuSans-32" transform="translate(127.246094 0)"/>
       <use xlink:href="#DejaVuSans-35" transform="translate(190.869141 0)"/>
       <use xlink:href="#DejaVuSans-2d" transform="translate(254.492188 0)"/>
       <use xlink:href="#DejaVuSans-30" transform="translate(290.576172 0)"/>
       <use xlink:href="#DejaVuSans-37" transform="translate(354.199219 0)"/>
       <use xlink:href="#DejaVuSans-2d" transform="translate(417.822266 0)"/>
       <use xlink:href="#DejaVuSans-31" transform="translate(453.90625 0)"/>
       <use xlink:href="#DejaVuSans-36" transform="translate(517.529297 0)"/>
      </g>
     </g>
    </g>
   </g>
   <g id="matplotlib.axis_2">
    <g id="ytick_1">
     <g id="line2d_1">
      <path d="M 61.56 289.683013 
L 707.04 289.683013 
" clip-path="url(#pf505cd48c4)" style="fill: none; stroke: #cccccc; stroke-linecap: round"/>
     </g>
     <g id="text_8">
      <!-- 0% -->
      <g style="fill: #757a7f" transform="translate(36.195937 293.482232) scale(0.1 -0.1)">
       <defs>
        <path id="DejaVuSans-25" d="M 4653 2053 
Q 4381 2053 4226 1822 
Q 4072 1591 4072 1178 
Q 4072 772 4226 539 
Q 4381 306 4653 306 
Q 4919 306 5073 539 
Q 5228 772 5228 1178 
Q 5228 1588 5073 1820 
Q 4919 2053 4653 2053 
z
M 4653 2450 
Q 5147 2450 5437 2106 
Q 5728 1763 5728 1178 
Q 5728 594 5436 251 
Q 5144 -91 4653 -91 
Q 4153 -91 3862 251 
Q 3572 594 3572 1178 
Q 3572 1766 3864 2108 
Q 4156 2450 4653 2450 
z
M 1428 4353 
Q 1159 4353 1004 4120 
Q 850 3888 850 3481 
Q 850 3069 1003 2837 
Q 1156 2606 1428 2606 
Q 1700 2606 1854 2837 
Q 2009 3069 2009 3481 
Q 2009 3884 1853 4118 
Q 1697 4353 1428 4353 
z
M 4250 4750 
L 4750 4750 
L 1831 -91 
L 1331 -91 
L 4250 4750 
z
M 1428 4750 
Q 1922 4750 2215 4408 
Q 2509 4066 2509 3481 
Q 2509 2891 2217 2550 
Q 1925 2209 1428 2209 
Q 931 2209 642 2551 
Q 353 2894 353 3481 
Q 353 4063 643 4406 
Q 934 4750 1428 4750 
z
" transform="scale(0.015625)"/>
       </defs>
       <use xlink:href="#DejaVuSans-30"/>
       <use xlink:href="#DejaVuSans-25" transform="translate(63.623047 0)"/>
      </g>
     </g>
    </g>
    <g id="ytick_2">
     <g id="line2d_2">
      <path d="M 61.56 240.91764 
L 707.04 240.91764 
" clip-path="url(#pf505cd48c4)" style="fill: none; stroke: #cccccc; stroke-linecap: round"/>
     </g>
     <g id="text_9">
      <!-- 10% -->
      <g style="fill: #757a7f" transform="translate(29.833438 244.716859) scale(0.1 -0.1)">
       <use xlink:href="#DejaVuSans-31"/>
       <use xlink:href="#DejaVuSans-30" transform="translate(63.623047 0)"/>
       <use xlink:href="#DejaVuSans-25" transform="translate(127.246094 0)"/>
      </g>
     </g>
    </g>
    <g id="ytick_3">
     <g id="line2d_3">
      <path d="M 61.56 192.152268 
L 707.04 192.152268 
" clip-path="url(#pf505cd48c4)" style="fill: none; stroke: #cccccc; stroke-linecap: round"/>
     </g>
     <g id="text_10">
      <!-- 20% -->
      <g style="fill: #757a7f" transform="translate(29.833438 195.951486) scale(0.1 -0.1)">
       <use xlink:href="#DejaVuSans-32"/>
       <use xlink:href="#DejaVuSans-30" transform="translate(63.623047 0)"/>
       <use xlink:href="#DejaVuSans-25" transform="translate(127.246094 0)"/>
      </g>
     </g>
    </g>
    <g id="ytick_4">
     <g id="line2d_4">
      <path d="M 61.56 143.386895 
L 707.04 143.386895 
" clip-path="url(#pf505cd48c4)" style="fill: none; stroke: #cccccc; stroke-linecap: round"/>
     </g>
     <g id="text_11">
      <!-- 30% -->
      <g style="fill: #757a7f" transform="translate(29.833438 147.186114) scale(0.1 -0.1)">
       <use xlink:href="#DejaVuSans-33"/>
       <use xlink:href="#DejaVuSans-30" transform="translate(63.623047 0)"/>
       <use xlink:href="#DejaVuSans-25" transform="translate(127.246094 0)"/>
      </g>
     </g>
    </g>
    <g id="ytick_5">
     <g id="line2d_5">
      <path d="M 61.56 94.621522 
L 707.04 94.621522 
" clip-path="url(#pf505cd48c4)" style="fill: none; stroke: #cccccc; stroke-linecap: round"/>
     </g>
     <g id="text_12">
      <!-- 40% -->
      <g style="fill: #757a7f" transform="translate(29.833438 98.420741) scale(0.1 -0.1)">
       <use xlink:href="#DejaVuSans-34"/>
       <use xlink:href="#DejaVuSans-30" transform="translate(63.623047 0)"/>
       <use xlink:href="#DejaVuSans-25" transform="translate(127.246094 0)"/>
      </g>
     </g>
    </g>
    <g id="ytick_6">
     <g id="line2d_6">
      <path d="M 61.56 45.85615 
L 707.04 45.85615 
" clip-path="url(#pf505cd48c4)" style="fill: none; stroke: #cccccc; stroke-linecap: round"/>
     </g>
     <g id="text_13">
      <!-- 50% -->
      <g style="fill: #757a7f" transform="translate(29.833438 49.655368) scale(0.1 -0.1)">
       <use xlink:href="#DejaVuSans-35"/>
       <use xlink:href="#DejaVuSans-30" transform="translate(63.623047 0)"/>
       <use xlink:href="#DejaVuSans-25" transform="translate(127.246094 0)"/>
      </g>
     </g>
    </g>
    <g id="text_14">
     <!-- Usage (%) -->
     <g style="fill: #757a7f" transform="translate(23.337812 197.705882) rotate(-90) scale(0.12 -0.12)">
      <defs>
       <path id="DejaVuSans-55" d="M 556 4666 
L 1191 4666 
L 1191 1831 
Q 1191 1081 1462 751 
Q 1734 422 2344 422 
Q 2950 422 3222 751 
Q 3494 1081 3494 1831 
L 3494 4666 
L 4128 4666 
L 4128 1753 
Q 4128 841 3676 375 
Q 3225 -91 2344 -91 
Q 1459 -91 1007 375 
Q 556 841 556 1753 
L 556 4666 
z
" transform="scale(0.015625)"/>
       <path id="DejaVuSans-73" d="M 2834 3397 
L 2834 2853 
Q 2591 2978 2328 3040 
Q 2066 3103 1784 3103 
Q 1356 3103 1142 2972 
Q 928 2841 928 2578 
Q 928 2378 1081 2264 
Q 1234 2150 1697 2047 
L 1894 2003 
Q 2506 1872 2764 1633 
Q 3022 1394 3022 966 
Q 3022 478 2636 193 
Q 2250 -91 1575 -91 
Q 1294 -91 989 -36 
Q 684 19 347 128 
L 347 722 
Q 666 556 975 473 
Q 1284 391 1588 391 
Q 1994 391 2212 530 
Q 2431 669 2431 922 
Q 2431 1156 2273 1281 
Q 2116 1406 1581 1522 
L 1381 1569 
Q 847 1681 609 1914 
Q 372 2147 372 2553 
Q 372 3047 722 3315 
Q 1072 3584 1716 3584 
Q 2034 3584 2315 3537 
Q 2597 3491 2834 3397 
z
" transform="scale(0.015625)"/>
       <path id="DejaVuSans-61" d="M 2194 1759 
Q 1497 1759 1228 1600 
Q 959 1441 959 1056 
Q 959 750 1161 570 
Q 1363 391 1709 391 
Q 2188 391 2477 730 
Q 2766 1069 2766 1631 
L 2766 1759 
L 2194 1759 
z
M 3341 1997 
L 3341 0 
L 2766 0 
L 2766 531 
Q 2569 213 2275 61 
Q 1981 -91 1556 -91 
Q 1019 -91 701 211 
Q 384 513 384 1019 
Q 384 1609 779 1909 
Q 1175 2209 1959 2209 
L 2766 2209 
L 2766 2266 
Q 2766 2663 2505 2880 
Q 2244 3097 1772 3097 
Q 1472 3097 1187 3025 
Q 903 2953 641 2809 
L 641 3341 
Q 956 3463 1253 3523 
Q 1550 3584 1831 3584 
Q 2591 3584 2966 3190 
Q 3341 2797 3341 1997 
z
" transform="scale(0.015625)"/>
       <path id="DejaVuSans-67" d="M 2906 1791 
Q 2906 2416 2648 2759 
Q 2391 3103 1925 3103 
Q 1463 3103 1205 2759 
Q 947 2416 947 1791 
Q 947 1169 1205 825 
Q 1463 481 1925 481 
Q 2391 481 2648 825 
Q 2906 1169 2906 1791 
z
M 3481 434 
Q 3481 -459 3084 -895 
Q 2688 -1331 1869 -1331 
Q 1566 -1331 1297 -1286 
Q 1028 -1241 775 -1147 
L 775 -588 
Q 1028 -725 1275 -790 
Q 1522 -856 1778 -856 
Q 2344 -856 2625 -561 
Q 2906 -266 2906 331 
L 2906 616 
Q 2728 306 2450 153 
Q 2172 0 1784 0 
Q 1141 0 747 490 
Q 353 981 353 1791 
Q 353 2603 747 3093 
Q 1141 3584 1784 3584 
Q 2172 3584 2450 3431 
Q 2728 3278 2906 2969 
L 2906 3500 
L 3481 3500 
L 3481 434 
z
" transform="scale(0.015625)"/>
       <path id="DejaVuSans-65" d="M 3597 1894 
L 3597 1613 
L 953 1613 
Q 991 1019 1311 708 
Q 1631 397 2203 397 
Q 2534 397 2845 478 
Q 3156 559 3463 722 
L 3463 178 
Q 3153 47 2828 -22 
Q 2503 -91 2169 -91 
Q 1331 -91 842 396 
Q 353 884 353 1716 
Q 353 2575 817 3079 
Q 1281 3584 2069 3584 
Q 2775 3584 3186 3129 
Q 3597 2675 3597 1894 
z
M 3022 2063 
Q 3016 2534 2758 2815 
Q 2500 3097 2075 3097 
Q 1594 3097 1305 2825 
Q 1016 2553 972 2059 
L 3022 2063 
z
" transform="scale(0.015625)"/>
       <path id="DejaVuSans-20" transform="scale(0.015625)"/>
       <path id="DejaVuSans-28" d="M 1984 4856 
Q 1566 4138 1362 3434 
Q 1159 2731 1159 2009 
Q 1159 1288 1364 580 
Q 1569 -128 1984 -844 
L 1484 -844 
Q 1016 -109 783 600 
Q 550 1309 550 2009 
Q 550 2706 781 3412 
Q 1013 4119 1484 4856 
L 1984 4856 
z
" transform="scale(0.015625)"/>
       <path id="DejaVuSans-29" d="M 513 4856 
L 1013 4856 
Q 1481 4119 1714 3412 
Q 1947 2706 1947 2009 
Q 1947 1309 1714 600 
Q 1481 -109 1013 -844 
L 513 -844 
Q 928 -128 1133 580 
Q 1338 1288 1338 2009 
Q 1338 2731 1133 3434 
Q 928 4138 513 4856 
z
" transform="scale(0.015625)"/>
      </defs>
      <use xlink:href="#DejaVuSans-55"/>
      <use xlink:href="#DejaVuSans-73" transform="translate(73.193359 0)"/>
      <use xlink:href="#DejaVuSans-61" transform="translate(125.292969 0)"/>
      <use xlink:href="#DejaVuSans-67" transform="translate(186.572266 0)"/>
      <use xlink:href="#DejaVuSans-65" transform="translate(250.048828 0)"/>
      <use xlink:href="#DejaVuSans-20" transform="translate(311.572266 0)"/>
      <use xlink:href="#DejaVuSans-28" transform="translate(343.359375 0)"/>
      <use xlink:href="#DejaVuSans-25" transform="translate(382.373047 0)"/>
      <use xlink:href="#DejaVuSans-29" transform="translate(477.392578 0)"/>
     </g>
    </g>
   </g>
   <g id="patch_17">
    <path d="M 70.781143 289.683013 
L 144.550286 289.683013 
L 144.550286 328.695311 
L 70.781143 328.695311 
z
" clip-path="url(#pf505cd48c4)" style="fill: #aeccdb"/>
   </g>
   <g id="patch_18">
    <path d="M 162.992571 289.683013 
L 236.761714 289.683013 
L 236.761714 328.695311 
L 162.992571 328.695311 
z
" clip-path="url(#pf505cd48c4)" style="fill: #3274a1"/>
   </g>
   <g id="patch_19">
    <path d="M 255.204 289.683013 
L 328.973143 289.683013 
L 328.973143 179.660039 
L 255.204 179.660039 
z
" clip-path="url(#pf505cd48c4)" style="fill: #b3d495"/>
   </g>
   <g id="patch_20">
    <path d="M 347.415429 289.683013 
L 421.184571 289.683013 
L 421.184571 114.849213 
L 347.415429 114.849213 
z
" clip-path="url(#pf505cd48c4)" style="fill: #40923a"/>
   </g>
   <g id="patch_21">
    <path d="M 439.626857 289.683013 
L 513.396 289.683013 
L 513.396 320.542397 
L 439.626857 320.542397 
z
" clip-path="url(#pf505cd48c4)" style="fill: #efa6a5"/>
   </g>
   <g id="patch_22">
    <path d="M 531.838286 289.683013 
L 605.607429 289.683013 
L 605.607429 295.175656 
L 531.838286 295.175656 
z
" clip-path="url(#pf505cd48c4)" style="fill: #ca3335"/>
   </g>
   <g id="patch_23">
    <path d="M 624.049714 289.683013 
L 697.818857 289.683013 
L 697.818857 245.595525 
L 624.049714 245.595525 
z
" clip-path="url(#pf505cd48c4)" style="fill: #ebbd81"/>
   </g>
   <g id="line2d_7">
    <path clip-path="url(#pf505cd48c4)" style="fill: none; stroke: #424242; stroke-width: 2.25; stroke-linecap: round"/>
   </g>
   <g id="line2d_8">
    <path clip-path="url(#pf505cd48c4)" style="fill: none; stroke: #424242; stroke-width: 2.25; stroke-linecap: round"/>
   </g>
   <g id="line2d_9">
    <path clip-path="url(#pf505cd48c4)" style="fill: none; stroke: #424242; stroke-width: 2.25; stroke-linecap: round"/>
   </g>
   <g id="line2d_10">
    <path clip-path="url(#pf505cd48c4)" style="fill: none; stroke: #424242; stroke-width: 2.25; stroke-linecap: round"/>
   </g>
   <g id="line2d_11">
    <path clip-path="url(#pf505cd48c4)" style="fill: none; stroke: #424242; stroke-width: 2.25; stroke-linecap: round"/>
   </g>
   <g id="line2d_12">
    <path clip-path="url(#pf505cd48c4)" style="fill: none; stroke: #424242; stroke-width: 2.25; stroke-linecap: round"/>
   </g>
   <g id="line2d_13">
    <path clip-path="url(#pf505cd48c4)" style="fill: none; stroke: #424242; stroke-width: 2.25; stroke-linecap: round"/>
   </g>
   <g id="patch_24">
    <path d="M 107.665714 367.707609 
C 117.447617 367.707609 126.830195 363.597027 133.747045 356.281172 
C 140.663895 348.965316 144.550286 339.041494 144.550286 328.695311 
C 144.550286 318.349129 140.663895 308.425306 133.747045 301.109451 
C 126.830195 293.793595 117.447617 289.683013 107.665714 289.683013 
C 97.883812 289.683013 88.501233 293.793595 81.584384 301.109451 
C 74.667534 308.425306 70.781143 318.349129 70.781143 328.695311 
C 70.781143 339.041494 74.667534 348.965316 81.584384 356.281172 
C 88.501233 363.597027 97.883812 367.707609 107.665714 367.707609 
z
" clip-path="url(#pf505cd48c4)" style="fill: #aeccdb"/>
   </g>
   <g id="patch_25">
    <path d="M 199.877143 367.707609 
C 209.659046 367.707609 219.041624 363.597027 225.958473 356.281172 
C 232.875323 348.965316 236.761714 339.041494 236.761714 328.695311 
C 236.761714 318.349129 232.875323 308.425306 225.958473 301.109451 
C 219.041624 293.793595 209.659046 289.683013 199.877143 289.683013 
C 190.09524 289.683013 180.712662 293.793595 173.795812 301.109451 
C 166.878963 308.425306 162.992571 318.349129 162.992571 328.695311 
C 162.992571 339.041494 166.878963 348.965316 173.795812 356.281172 
C 180.712662 363.597027 190.09524 367.707609 199.877143 367.707609 
z
" clip-path="url(#pf505cd48c4)" style="fill: #3274a1"/>
   </g>
   <g id="patch_26">
    <path d="M 292.088571 218.672337 
C 301.870474 218.672337 311.253052 214.561756 318.169902 207.2459 
C 325.086752 199.930044 328.973143 190.006222 328.973143 179.660039 
C 328.973143 169.313857 325.086752 159.390034 318.169902 152.074179 
C 311.253052 144.758323 301.870474 140.647741 292.088571 140.647741 
C 282.306669 140.647741 272.924091 144.758323 266.007241 152.074179 
C 259.090391 159.390034 255.204 169.313857 255.204 179.660039 
C 255.204 190.006222 259.090391 199.930044 266.007241 207.2459 
C 272.924091 214.561756 282.306669 218.672337 292.088571 218.672337 
z
" clip-path="url(#pf505cd48c4)" style="fill: #b3d495"/>
   </g>
   <g id="patch_27">
    <path d="M 384.3 153.861511 
C 394.081903 153.861511 403.464481 149.750929 410.381331 142.435073 
C 417.29818 135.119218 421.184571 125.195395 421.184571 114.849213 
C 421.184571 104.50303 417.29818 94.579208 410.381331 87.263352 
C 403.464481 79.947497 394.081903 75.836915 384.3 75.836915 
C 374.518097 75.836915 365.135519 79.947497 358.218669 87.263352 
C 351.30182 94.579208 347.415429 104.50303 347.415429 114.849213 
C 347.415429 125.195395 351.30182 135.119218 358.218669 142.435073 
C 365.135519 149.750929 374.518097 153.861511 384.3 153.861511 
z
" clip-path="url(#pf505cd48c4)" style="fill: #40923a"/>
   </g>
   <g id="patch_28">
    <path d="M 476.511429 359.554695 
C 486.293331 359.554695 495.675909 355.444113 502.592759 348.128257 
C 509.509609 340.812401 513.396 330.888579 513.396 320.542397 
C 513.396 310.196214 509.509609 300.272392 502.592759 292.956536 
C 495.675909 285.64068 486.293331 281.530098 476.511429 281.530098 
C 466.729526 281.530098 457.346948 285.64068 450.430098 292.956536 
C 443.513248 300.272392 439.626857 310.196214 439.626857 320.542397 
C 439.626857 330.888579 443.513248 340.812401 450.430098 348.128257 
C 457.346948 355.444113 466.729526 359.554695 476.511429 359.554695 
z
" clip-path="url(#pf505cd48c4)" style="fill: #efa6a5"/>
   </g>
   <g id="patch_29">
    <path d="M 568.722857 334.187954 
C 578.50476 334.187954 587.887338 330.077372 594.804188 322.761516 
C 601.721037 315.44566 605.607429 305.521838 605.607429 295.175656 
C 605.607429 284.829473 601.721037 274.905651 594.804188 267.589795 
C 587.887338 260.273939 578.50476 256.163357 568.722857 256.163357 
C 558.940954 256.163357 549.558376 260.273939 542.641527 267.589795 
C 535.724677 274.905651 531.838286 284.829473 531.838286 295.175656 
C 531.838286 305.521838 535.724677 315.44566 542.641527 322.761516 
C 549.558376 330.077372 558.940954 334.187954 568.722857 334.187954 
z
" clip-path="url(#pf505cd48c4)" style="fill: #ca3335"/>
   </g>
   <g id="patch_30">
    <path d="M 660.934286 284.607823 
C 670.716188 284.607823 680.098767 280.497241 687.015616 273.181385 
C 693.932466 265.86553 697.818857 255.941707 697.818857 245.595525 
C 697.818857 235.249343 693.932466 225.32552 687.015616 218.009664 
C 680.098767 210.693809 670.716188 206.583227 660.934286 206.583227 
C 651.152383 206.583227 641.769805 210.693809 634.852955 218.009664 
C 627.936105 225.32552 624.049714 235.249343 624.049714 245.595525 
C 624.049714 255.941707 627.936105 265.86553 634.852955 273.181385 
C 641.769805 280.497241 651.152383 284.607823 660.934286 284.607823 
z
" clip-path="url(#pf505cd48c4)" style="fill: #ebbd81"/>
   </g>
   <g id="text_15">
    <!-- Weekly Usage Summary -->
    <g style="fill: #757a7f" transform="translate(289.16125 23.76) scale(0.14 -0.14)">
     <defs>
      <path id="DejaVuSans-Bold-57" d="M 191 4666 
L 1344 4666 
L 2150 1275 
L 2950 4666 
L 4109 4666 
L 4909 1275 
L 5716 4666 
L 6859 4666 
L 5759 0 
L 4372 0 
L 3525 3547 
L 2688 0 
L 1300 0 
L 191 4666 
z
" transform="scale(0.015625)"/>
      <path id="DejaVuSans-Bold-65" d="M 4031 1759 
L 4031 1441 
L 1416 1441 
Q 1456 1047 1700 850 
Q 1944 653 2381 653 
Q 2734 653 3104 758 
Q 3475 863 3866 1075 
L 3866 213 
Q 3469 63 3072 -14 
Q 2675 -91 2278 -91 
Q 1328 -91 801 392 
Q 275 875 275 1747 
Q 275 2603 792 3093 
Q 1309 3584 2216 3584 
Q 3041 3584 3536 3087 
Q 4031 2591 4031 1759 
z
M 2881 2131 
Q 2881 2450 2695 2645 
Q 2509 2841 2209 2841 
Q 1884 2841 1681 2658 
Q 1478 2475 1428 2131 
L 2881 2131 
z
" transform="scale(0.015625)"/>
      <path id="DejaVuSans-Bold-6b" d="M 538 4863 
L 1656 4863 
L 1656 2216 
L 2944 3500 
L 4244 3500 
L 2534 1894 
L 4378 0 
L 3022 0 
L 1656 1459 
L 1656 0 
L 538 0 
L 538 4863 
z
" transform="scale(0.015625)"/>
      <path id="DejaVuSans-Bold-6c" d="M 538 4863 
L 1656 4863 
L 1656 0 
L 538 0 
L 538 4863 
z
" transform="scale(0.015625)"/>
      <path id="DejaVuSans-Bold-79" d="M 78 3500 
L 1197 3500 
L 2138 1125 
L 2938 3500 
L 4056 3500 
L 2584 -331 
Q 2363 -916 2067 -1148 
Q 1772 -1381 1288 -1381 
L 641 -1381 
L 641 -647 
L 991 -647 
Q 1275 -647 1404 -556 
Q 1534 -466 1606 -231 
L 1638 -134 
L 78 3500 
z
" transform="scale(0.015625)"/>
      <path id="DejaVuSans-Bold-20" transform="scale(0.015625)"/>
      <path id="DejaVuSans-Bold-55" d="M 588 4666 
L 1791 4666 
L 1791 1869 
Q 1791 1291 1980 1042 
Q 2169 794 2597 794 
Q 3028 794 3217 1042 
Q 3406 1291 3406 1869 
L 3406 4666 
L 4609 4666 
L 4609 1869 
Q 4609 878 4112 393 
Q 3616 -91 2597 -91 
Q 1581 -91 1084 393 
Q 588 878 588 1869 
L 588 4666 
z
" transform="scale(0.015625)"/>
      <path id="DejaVuSans-Bold-73" d="M 3272 3391 
L 3272 2541 
Q 2913 2691 2578 2766 
Q 2244 2841 1947 2841 
Q 1628 2841 1473 2761 
Q 1319 2681 1319 2516 
Q 1319 2381 1436 2309 
Q 1553 2238 1856 2203 
L 2053 2175 
Q 2913 2066 3209 1816 
Q 3506 1566 3506 1031 
Q 3506 472 3093 190 
Q 2681 -91 1863 -91 
Q 1516 -91 1145 -36 
Q 775 19 384 128 
L 384 978 
Q 719 816 1070 734 
Q 1422 653 1784 653 
Q 2113 653 2278 743 
Q 2444 834 2444 1013 
Q 2444 1163 2330 1236 
Q 2216 1309 1875 1350 
L 1678 1375 
Q 931 1469 631 1722 
Q 331 1975 331 2491 
Q 331 3047 712 3315 
Q 1094 3584 1881 3584 
Q 2191 3584 2531 3537 
Q 2872 3491 3272 3391 
z
" transform="scale(0.015625)"/>
      <path id="DejaVuSans-Bold-61" d="M 2106 1575 
Q 1756 1575 1579 1456 
Q 1403 1338 1403 1106 
Q 1403 894 1545 773 
Q 1688 653 1941 653 
Q 2256 653 2472 879 
Q 2688 1106 2688 1447 
L 2688 1575 
L 2106 1575 
z
M 3816 1997 
L 3816 0 
L 2688 0 
L 2688 519 
Q 2463 200 2181 54 
Q 1900 -91 1497 -91 
Q 953 -91 614 226 
Q 275 544 275 1050 
Q 275 1666 698 1953 
Q 1122 2241 2028 2241 
L 2688 2241 
L 2688 2328 
Q 2688 2594 2478 2717 
Q 2269 2841 1825 2841 
Q 1466 2841 1156 2769 
Q 847 2697 581 2553 
L 581 3406 
Q 941 3494 1303 3539 
Q 1666 3584 2028 3584 
Q 2975 3584 3395 3211 
Q 3816 2838 3816 1997 
z
" transform="scale(0.015625)"/>
      <path id="DejaVuSans-Bold-67" d="M 2919 594 
Q 2688 288 2409 144 
Q 2131 0 1766 0 
Q 1125 0 706 504 
Q 288 1009 288 1791 
Q 288 2575 706 3076 
Q 1125 3578 1766 3578 
Q 2131 3578 2409 3434 
Q 2688 3291 2919 2981 
L 2919 3500 
L 4044 3500 
L 4044 353 
Q 4044 -491 3511 -936 
Q 2978 -1381 1966 -1381 
Q 1638 -1381 1331 -1331 
Q 1025 -1281 716 -1178 
L 716 -306 
Q 1009 -475 1290 -558 
Q 1572 -641 1856 -641 
Q 2406 -641 2662 -400 
Q 2919 -159 2919 353 
L 2919 594 
z
M 2181 2772 
Q 1834 2772 1640 2515 
Q 1447 2259 1447 1791 
Q 1447 1309 1634 1061 
Q 1822 813 2181 813 
Q 2531 813 2725 1069 
Q 2919 1325 2919 1791 
Q 2919 2259 2725 2515 
Q 2531 2772 2181 2772 
z
" transform="scale(0.015625)"/>
      <path id="DejaVuSans-Bold-53" d="M 3834 4519 
L 3834 3531 
Q 3450 3703 3084 3790 
Q 2719 3878 2394 3878 
Q 1963 3878 1756 3759 
Q 1550 3641 1550 3391 
Q 1550 3203 1689 3098 
Q 1828 2994 2194 2919 
L 2706 2816 
Q 3484 2659 3812 2340 
Q 4141 2022 4141 1434 
Q 4141 663 3683 286 
Q 3225 -91 2284 -91 
Q 1841 -91 1394 -6 
Q 947 78 500 244 
L 500 1259 
Q 947 1022 1364 901 
Q 1781 781 2169 781 
Q 2563 781 2772 912 
Q 2981 1044 2981 1288 
Q 2981 1506 2839 1625 
Q 2697 1744 2272 1838 
L 1806 1941 
Q 1106 2091 782 2419 
Q 459 2747 459 3303 
Q 459 4000 909 4375 
Q 1359 4750 2203 4750 
Q 2588 4750 2994 4692 
Q 3400 4634 3834 4519 
z
" transform="scale(0.015625)"/>
      <path id="DejaVuSans-Bold-75" d="M 500 1363 
L 500 3500 
L 1625 3500 
L 1625 3150 
Q 1625 2866 1622 2436 
Q 1619 2006 1619 1863 
Q 1619 1441 1641 1255 
Q 1663 1069 1716 984 
Q 1784 875 1895 815 
Q 2006 756 2150 756 
Q 2500 756 2700 1025 
Q 2900 1294 2900 1772 
L 2900 3500 
L 4019 3500 
L 4019 0 
L 2900 0 
L 2900 506 
Q 2647 200 2364 54 
Q 2081 -91 1741 -91 
Q 1134 -91 817 281 
Q 500 653 500 1363 
z
" transform="scale(0.015625)"/>
      <path id="DejaVuSans-Bold-6d" d="M 3781 2919 
Q 3994 3244 4286 3414 
Q 4578 3584 4928 3584 
Q 5531 3584 5847 3212 
Q 6163 2841 6163 2131 
L 6163 0 
L 5038 0 
L 5038 1825 
Q 5041 1866 5042 1909 
Q 5044 1953 5044 2034 
Q 5044 2406 4934 2573 
Q 4825 2741 4581 2741 
Q 4263 2741 4089 2478 
Q 3916 2216 3909 1719 
L 3909 0 
L 2784 0 
L 2784 1825 
Q 2784 2406 2684 2573 
Q 2584 2741 2328 2741 
Q 2006 2741 1831 2477 
Q 1656 2213 1656 1722 
L 1656 0 
L 531 0 
L 531 3500 
L 1656 3500 
L 1656 2988 
Q 1863 3284 2130 3434 
Q 2397 3584 2719 3584 
Q 3081 3584 3359 3409 
Q 3638 3234 3781 2919 
z
" transform="scale(0.015625)"/>
      <path id="DejaVuSans-Bold-72" d="M 3138 2547 
Q 2991 2616 2845 2648 
Q 2700 2681 2553 2681 
Q 2122 2681 1889 2404 
Q 1656 2128 1656 1613 
L 1656 0 
L 538 0 
L 538 3500 
L 1656 3500 
L 1656 2925 
Q 1872 3269 2151 3426 
Q 2431 3584 2822 3584 
Q 2878 3584 2943 3579 
Q 3009 3575 3134 3559 
L 3138 2547 
z
" transform="scale(0.015625)"/>
     </defs>
     <use xlink:href="#DejaVuSans-Bold-57"/>
     <use xlink:href="#DejaVuSans-Bold-65" transform="translate(106.677734 0)"/>
     <use xlink:href="#DejaVuSans-Bold-65" transform="translate(174.5 0)"/>
     <use xlink:href="#DejaVuSans-Bold-6b" transform="translate(242.322266 0)"/>
     <use xlink:href="#DejaVuSans-Bold-6c" transform="translate(308.826172 0)"/>
     <use xlink:href="#DejaVuSans-Bold-79" transform="translate(343.103516 0)"/>
     <use xlink:href="#DejaVuSans-Bold-20" transform="translate(408.289062 0)"/>
     <use xlink:href="#DejaVuSans-Bold-55" transform="translate(443.103516 0)"/>
     <use xlink:href="#DejaVuSans-Bold-73" transform="translate(524.304688 0)"/>
     <use xlink:href="#DejaVuSans-Bold-61" transform="translate(583.826172 0)"/>
     <use xlink:href="#DejaVuSans-Bold-67" transform="translate(651.306641 0)"/>
     <use xlink:href="#DejaVuSans-Bold-65" transform="translate(722.888672 0)"/>
     <use xlink:href="#DejaVuSans-Bold-20" transform="translate(790.710938 0)"/>
     <use xlink:href="#DejaVuSans-Bold-53" transform="translate(825.525391 0)"/>
     <use xlink:href="#DejaVuSans-Bold-75" transform="translate(897.546875 0)"/>
     <use xlink:href="#DejaVuSans-Bold-6d" transform="translate(968.738281 0)"/>
     <use xlink:href="#DejaVuSans-Bold-6d" transform="translate(1072.9375 0)"/>
     <use xlink:href="#DejaVuSans-Bold-61" transform="translate(1177.136719 0)"/>
     <use xlink:href="#DejaVuSans-Bold-72" transform="translate(1244.617188 0)"/>
     <use xlink:href="#DejaVuSans-Bold-79" transform="translate(1293.933594 0)"/>
    </g>
   </g>
  </g>
 </g>
 <defs>
  <clipPath id="pf505cd48c4">
   <rect x="61.56" y="43.76" width="645.48" height="245.923013"/>
  </clipPath>
 </defs>
</svg>
